<svg width="1143" height="664" viewBox="0 0 1143 664" fill="none" xmlns="http://www.w3.org/2000/svg">
<g opacity="0.1">
<path opacity="0.1" d="M840.37 653.896C852.57 653.896 862.46 640.953 862.46 624.986C862.46 609.019 852.57 596.076 840.37 596.076C828.17 596.076 818.28 609.019 818.28 624.986C818.28 640.953 828.17 653.896 840.37 653.896Z" fill="#3F3D56"/>
<path opacity="0.1" d="M857.85 501.306C860.945 495.935 862.55 489.835 862.5 483.636C862.5 467.636 852.61 454.726 840.41 454.726C828.21 454.726 818.33 467.666 818.33 483.636C818.268 489.831 819.859 495.931 822.94 501.306C819.917 506.703 818.33 512.785 818.33 518.971C818.33 525.157 819.917 531.239 822.94 536.636C819.917 542.035 818.33 548.119 818.33 554.306C818.33 560.493 819.917 566.577 822.94 571.976C819.859 577.351 818.268 583.451 818.33 589.646C818.33 605.646 828.22 618.556 840.41 618.556C852.6 618.556 862.5 605.616 862.5 589.646C862.562 583.451 860.971 577.351 857.89 571.976C860.913 566.577 862.5 560.493 862.5 554.306C862.5 548.119 860.913 542.035 857.89 536.636C860.913 531.239 862.5 525.157 862.5 518.971C862.5 512.785 860.913 506.703 857.89 501.306H857.85Z" fill="#3F3D56"/>
<path opacity="0.1" d="M840.37 477.216C852.57 477.216 862.46 464.273 862.46 448.306C862.46 432.339 852.57 419.396 840.37 419.396C828.17 419.396 818.28 432.339 818.28 448.306C818.28 464.273 828.17 477.216 840.37 477.216Z" fill="#3F3D56"/>
<path opacity="0.1" d="M840.37 441.876C852.57 441.876 862.46 428.933 862.46 412.966C862.46 396.999 852.57 384.056 840.37 384.056C828.17 384.056 818.28 396.999 818.28 412.966C818.28 428.933 828.17 441.876 840.37 441.876Z" fill="#3F3D56"/>
<path opacity="0.1" d="M923.05 171.146C926.065 167.303 928.811 163.256 931.27 159.036L873.27 149.506L936.04 149.976C942.056 136.875 945.336 122.684 945.68 108.272C946.024 93.8601 943.424 79.5292 938.04 66.1561L853.82 109.816L931.5 52.7561C924.22 40.193 914.433 29.2628 902.746 20.6458C891.06 12.0288 877.725 5.90951 863.571 2.66883C849.418 -0.571856 834.749 -0.86457 820.477 1.80891C806.206 4.48239 792.637 10.0649 780.616 18.2088C768.595 26.3527 758.38 36.8838 750.604 49.1464C742.829 61.4091 737.662 75.1409 735.423 89.4871C733.184 103.833 733.922 118.487 737.591 132.535C741.261 146.584 747.782 159.727 756.75 171.146C752.05 177.125 748.006 183.592 744.69 190.436L820.02 229.576L739.7 202.576C734.048 219.242 732.643 237.054 735.611 254.4C738.58 271.746 745.828 288.078 756.7 301.916C744.426 317.52 736.791 336.264 734.667 356.003C732.543 375.742 736.017 395.681 744.691 413.539C753.365 431.397 766.889 446.454 783.716 456.988C800.544 467.523 819.997 473.109 839.85 473.109C859.703 473.109 879.156 467.523 895.984 456.988C912.811 446.454 926.335 431.397 935.009 413.539C943.683 395.681 947.157 375.742 945.033 356.003C942.909 336.264 935.274 317.52 923 301.916C937.667 283.27 945.641 260.235 945.641 236.511C945.641 212.787 937.667 189.752 923 171.106L923.05 171.146Z" fill="#6C63FF"/>
<path opacity="0.1" d="M734.11 236.556C734.073 260.284 742.051 283.329 756.75 301.956C744.476 317.56 736.841 336.304 734.717 356.043C732.593 375.782 736.067 395.721 744.741 413.579C753.415 431.437 766.939 446.494 783.766 457.028C800.594 467.563 820.047 473.149 839.9 473.149C859.753 473.149 879.206 467.563 896.034 457.028C912.861 446.494 926.385 431.437 935.059 413.579C943.733 395.721 947.207 375.782 945.083 356.043C942.959 336.304 935.324 317.56 923.05 301.956C937.23 283.956 734.11 224.676 734.11 236.556Z" fill="black"/>
</g>
<g opacity="0.1">
<path opacity="0.1" d="M220.81 622.976C228.233 622.976 234.25 615.096 234.25 605.376C234.25 595.656 228.233 587.776 220.81 587.776C213.387 587.776 207.37 595.656 207.37 605.376C207.37 615.096 213.387 622.976 220.81 622.976Z" fill="#3F3D56"/>
<path opacity="0.1" d="M231.5 530.086C233.376 526.813 234.346 523.099 234.31 519.326C234.31 509.606 228.31 501.726 220.86 501.726C213.41 501.726 207.42 509.606 207.42 519.326C207.381 523.098 208.347 526.812 210.22 530.086C208.384 533.373 207.421 537.076 207.421 540.841C207.421 544.606 208.384 548.309 210.22 551.596C208.384 554.883 207.421 558.586 207.421 562.351C207.421 566.116 208.384 569.819 210.22 573.106C208.346 576.376 207.379 580.087 207.42 583.856C207.42 593.586 213.42 601.466 220.86 601.466C228.3 601.466 234.31 593.586 234.31 583.856C234.348 580.086 233.378 576.375 231.5 573.106C233.341 569.82 234.308 566.117 234.308 562.351C234.308 558.585 233.341 554.882 231.5 551.596C233.341 548.31 234.308 544.607 234.308 540.841C234.308 537.075 233.341 533.372 231.5 530.086Z" fill="#3F3D56"/>
<path opacity="0.1" d="M220.81 515.416C228.233 515.416 234.25 507.536 234.25 497.816C234.25 488.096 228.233 480.216 220.81 480.216C213.387 480.216 207.37 488.096 207.37 497.816C207.37 507.536 213.387 515.416 220.81 515.416Z" fill="#3F3D56"/>
<path opacity="0.1" d="M220.81 493.906C228.233 493.906 234.25 486.026 234.25 476.306C234.25 466.586 228.233 458.706 220.81 458.706C213.387 458.706 207.37 466.586 207.37 476.306C207.37 486.026 213.387 493.906 220.81 493.906Z" fill="#3F3D56"/>
<path opacity="0.1" d="M170.5 329.086C168.664 326.748 166.994 324.286 165.5 321.716L200.83 315.916L162.62 316.206C158.962 308.234 156.966 299.601 156.755 290.833C156.543 282.064 158.12 273.345 161.39 265.206L212.62 291.816L165.35 257.016C169.784 249.373 175.743 242.724 182.856 237.483C189.969 232.242 198.085 228.521 206.699 226.551C215.312 224.582 224.239 224.405 232.923 226.034C241.607 227.662 249.864 231.06 257.179 236.016C264.494 240.972 270.71 247.38 275.442 254.842C280.174 262.304 283.32 270.66 284.684 279.389C286.048 288.119 285.601 297.036 283.37 305.586C281.14 314.136 277.174 322.135 271.72 329.086C274.581 332.721 277.042 336.653 279.06 340.816L233.2 364.656L282.1 348.246C285.534 358.395 286.384 369.241 284.571 379.801C282.759 390.361 278.342 400.303 271.72 408.726C279.191 418.225 283.839 429.635 285.131 441.652C286.423 453.668 284.308 465.805 279.028 476.676C273.747 487.546 265.515 496.712 255.271 503.125C245.027 509.537 233.185 512.938 221.1 512.938C209.015 512.938 197.173 509.537 186.929 503.125C176.685 496.712 168.453 487.546 163.172 476.676C157.892 465.805 155.777 453.668 157.069 441.652C158.362 429.635 163.009 418.225 170.48 408.726C161.552 397.373 156.699 383.349 156.699 368.906C156.699 354.463 161.552 340.439 170.48 329.086H170.5Z" fill="#6C63FF"/>
<path opacity="0.1" d="M285.5 368.906C285.521 383.352 280.666 397.383 271.72 408.726C279.191 418.225 283.838 429.635 285.131 441.651C286.423 453.668 284.308 465.805 279.028 476.676C273.747 487.546 265.515 496.712 255.271 503.125C245.027 509.537 233.185 512.938 221.1 512.938C209.015 512.938 197.173 509.537 186.929 503.125C176.685 496.712 168.453 487.546 163.172 476.676C157.892 465.805 155.777 453.668 157.069 441.651C158.361 429.635 163.009 418.225 170.48 408.726C161.85 397.816 285.5 361.676 285.5 368.906Z" fill="black"/>
</g>
<g opacity="0.1">
<path opacity="0.1" d="M523.81 638.296C533.746 638.296 541.8 627.752 541.8 614.746C541.8 601.74 533.746 591.196 523.81 591.196C513.874 591.196 505.82 601.74 505.82 614.746C505.82 627.752 513.874 638.296 523.81 638.296Z" fill="#3F3D56"/>
<path opacity="0.1" d="M538.05 513.986C540.557 509.604 541.852 504.634 541.8 499.586C541.8 486.586 533.8 476.036 523.8 476.036C513.8 476.036 505.8 486.586 505.8 499.586C505.747 504.635 507.045 509.607 509.56 513.986C507.095 518.383 505.801 523.34 505.801 528.381C505.801 533.422 507.095 538.379 509.56 542.776C507.095 547.172 505.801 552.126 505.801 557.166C505.801 562.205 507.095 567.16 509.56 571.556C507.045 575.935 505.747 580.907 505.8 585.956C505.8 598.956 513.86 609.506 523.8 609.506C533.74 609.506 541.8 598.956 541.8 585.956C541.852 580.908 540.557 575.938 538.05 571.556C540.509 567.159 541.801 562.204 541.801 557.166C541.801 552.128 540.509 547.173 538.05 542.776C540.509 538.377 541.801 533.421 541.801 528.381C541.801 523.341 540.509 518.385 538.05 513.986Z" fill="#3F3D56"/>
<path opacity="0.1" d="M523.81 494.356C533.746 494.356 541.8 483.812 541.8 470.806C541.8 457.8 533.746 447.256 523.81 447.256C513.874 447.256 505.82 457.8 505.82 470.806C505.82 483.812 513.874 494.356 523.81 494.356Z" fill="#3F3D56"/>
<path opacity="0.1" d="M523.81 465.566C533.746 465.566 541.8 455.022 541.8 442.016C541.8 429.01 533.746 418.466 523.81 418.466C513.874 418.466 505.82 429.01 505.82 442.016C505.82 455.022 513.874 465.566 523.81 465.566Z" fill="#3F3D56"/>
<path opacity="0.1" d="M456.5 245.016C454.041 241.888 451.802 238.594 449.8 235.156L497.07 227.396L445.95 227.776C441.045 217.104 438.369 205.543 438.085 193.801C437.801 182.059 439.916 170.383 444.3 159.486L512.9 195.066L449.63 148.566C455.541 138.294 463.507 129.351 473.031 122.296C482.554 115.241 493.43 110.227 504.979 107.565C516.528 104.903 528.502 104.652 540.152 106.827C551.803 109.002 562.879 113.557 572.69 120.206C582.501 126.855 590.835 135.456 597.171 145.472C603.508 155.487 607.711 166.702 609.517 178.415C611.324 190.129 610.695 202.089 607.671 213.548C604.647 225.007 599.291 235.72 591.94 245.016C595.768 249.888 599.06 255.159 601.76 260.736L540.4 292.616L605.83 270.616C610.426 284.197 611.563 298.71 609.138 312.841C606.713 326.972 600.802 340.275 591.94 351.546C601.938 364.258 608.157 379.527 609.886 395.607C611.615 411.687 608.785 427.929 601.719 442.476C594.652 457.023 583.635 469.288 569.927 477.87C556.219 486.451 540.373 491.002 524.2 491.002C508.027 491.002 492.181 486.451 478.473 477.87C464.765 469.288 453.748 457.023 446.681 442.476C439.615 427.929 436.785 411.687 438.514 395.607C440.243 379.527 446.462 364.258 456.46 351.546C444.515 336.353 438.021 317.587 438.021 298.261C438.021 278.935 444.515 260.169 456.46 244.976L456.5 245.016Z" fill="#6C63FF"/>
<path opacity="0.1" d="M610.38 298.306C610.41 317.636 603.912 336.41 591.94 351.586C601.938 364.298 608.157 379.567 609.886 395.647C611.615 411.727 608.785 427.969 601.719 442.516C594.652 457.063 583.635 469.328 569.927 477.91C556.219 486.491 540.373 491.042 524.2 491.042C508.027 491.042 492.181 486.491 478.473 477.91C464.765 469.328 453.748 457.063 446.681 442.516C439.615 427.969 436.785 411.727 438.514 395.647C440.243 379.567 446.462 364.298 456.46 351.586C444.91 336.926 610.38 288.626 610.38 298.306Z" fill="black"/>
</g>
<path d="M1143 636.176C1143 643.046 1092.78 649.326 1009.75 654.176C994.65 655.046 978.47 655.876 961.31 656.656C946.483 657.323 930.943 657.953 914.69 658.546C898.943 659.106 882.593 659.626 865.64 660.106C812.1 661.636 752.91 662.736 690.03 663.286C674.77 663.426 659.307 663.533 643.64 663.606C627.32 663.679 610.813 663.713 594.12 663.706C290.98 663.706 45.25 651.396 45.25 636.206C45.25 621.016 290.98 608.706 594.12 608.706C724.63 608.706 844.48 610.996 938.68 614.796L948.98 615.216H949.04C1067.7 620.246 1143 627.816 1143 636.176Z" fill="#3F3D56"/>
<path opacity="0.15" d="M1143 636.176C1143 643.046 1092.78 649.326 1009.75 654.176C994.65 655.046 978.47 655.876 961.31 656.656C946.483 657.323 930.943 657.953 914.69 658.546C898.943 659.106 882.593 659.626 865.64 660.106C812.1 661.636 752.91 662.736 690.03 663.286C674.77 663.426 659.307 663.533 643.64 663.606C627.32 663.679 610.813 663.713 594.12 663.706C290.98 663.706 45.25 651.396 45.25 636.206C45.25 621.016 290.98 608.706 594.12 608.706C724.63 608.706 844.48 610.996 938.68 614.796L948.98 615.216H949.04C1067.7 620.246 1143 627.816 1143 636.176Z" fill="black"/>
<path d="M1097.75 631.336C1097.75 637.076 1047.53 642.336 964.5 646.336C949.41 647.066 933.22 647.756 916.07 648.406C901.237 648.966 885.697 649.493 869.45 649.986C853.703 650.453 837.353 650.889 820.4 651.296C766.85 652.576 707.66 653.496 644.78 653.956C629.533 654.069 614.07 654.156 598.39 654.216C582.07 654.276 565.567 654.306 548.88 654.306C245.74 654.306 0 644.016 0 631.306C0 618.596 245.74 608.306 548.88 608.306C679.38 608.306 799.23 610.216 893.43 613.396L903.73 613.746H903.8C1022.5 618.016 1097.75 624.306 1097.75 631.336Z" fill="#3F3D56"/>
<path d="M683.11 357.576C648.99 357.576 622.1 344.033 602.44 316.946C582.78 289.859 572.95 257.046 572.95 218.506C572.95 179.706 582.457 146.959 601.47 120.266C620.483 93.5728 647.303 80.2394 681.93 80.2661C718.65 80.2661 746.317 94.3294 764.93 122.456C783.543 150.583 792.853 183.136 792.86 220.116C792.86 256.829 783.227 288.923 763.96 316.396C744.693 343.869 717.743 357.596 683.11 357.576ZM684.11 327.106C706.557 327.106 723.333 317.323 734.44 297.756C745.547 278.189 751.1 253.523 751.1 223.756C751.1 190.623 745.417 163.493 734.05 142.366C722.683 121.239 705.25 110.673 681.75 110.666C637.083 110.666 614.75 146.146 614.75 217.106C614.75 290.446 637.863 327.113 684.09 327.106H684.11ZM695.35 618.896H646L969.08 85.6961H1017.5L695.35 618.896ZM981.17 624.366C946.537 624.366 919.537 610.699 900.17 583.366C880.803 556.033 871.08 523.216 871 484.916C871 446.376 880.44 413.759 899.32 387.066C918.2 360.373 945.087 347.039 979.98 347.066C1016.44 347.066 1043.91 361.129 1062.4 389.256C1080.89 417.383 1090.13 449.933 1090.14 486.906C1090.14 523.379 1080.57 555.413 1061.43 583.006C1042.29 610.599 1015.53 624.386 981.15 624.366H981.17ZM981.75 593.116C1004.09 593.116 1020.78 583.499 1031.81 564.266C1042.84 545.033 1048.36 520.466 1048.36 490.566C1048.36 458.566 1042.78 431.729 1031.61 410.056C1020.44 388.383 1003.05 377.529 979.42 377.496C934.493 377.496 912.03 412.976 912.03 483.936C912.017 556.729 935.25 593.123 981.73 593.116H981.75Z" fill="#3F3D56"/>
<path d="M683.11 357.576C648.99 357.576 622.1 344.033 602.44 316.946C582.78 289.859 572.95 257.046 572.95 218.506C572.95 179.706 582.457 146.959 601.47 120.266C620.483 93.5728 647.303 80.2394 681.93 80.2661C718.65 80.2661 746.317 94.3294 764.93 122.456C783.543 150.583 792.853 183.136 792.86 220.116C792.86 256.829 783.227 288.923 763.96 316.396C744.693 343.869 717.743 357.596 683.11 357.576ZM684.11 327.106C706.557 327.106 723.333 317.323 734.44 297.756C745.547 278.189 751.1 253.523 751.1 223.756C751.1 190.623 745.417 163.493 734.05 142.366C722.683 121.239 705.25 110.673 681.75 110.666C637.083 110.666 614.75 146.146 614.75 217.106C614.75 290.446 637.863 327.113 684.09 327.106H684.11ZM695.35 618.896H646L969.08 85.6961H1017.5L695.35 618.896ZM981.17 624.366C946.537 624.366 919.537 610.699 900.17 583.366C880.803 556.033 871.08 523.216 871 484.916C871 446.376 880.44 413.759 899.32 387.066C918.2 360.373 945.087 347.039 979.98 347.066C1016.44 347.066 1043.91 361.129 1062.4 389.256C1080.89 417.383 1090.13 449.933 1090.14 486.906C1090.14 523.379 1080.57 555.413 1061.43 583.006C1042.29 610.599 1015.53 624.386 981.15 624.366H981.17ZM981.75 593.116C1004.09 593.116 1020.78 583.499 1031.81 564.266C1042.84 545.033 1048.36 520.466 1048.36 490.566C1048.36 458.566 1042.78 431.729 1031.61 410.056C1020.44 388.383 1003.05 377.529 979.42 377.496C934.493 377.496 912.03 412.976 912.03 483.936C912.017 556.729 935.25 593.123 981.73 593.116H981.75Z" fill="#3F3D56"/>
<path opacity="0.15" d="M683.11 357.576C648.99 357.576 622.1 344.033 602.44 316.946C582.78 289.859 572.95 257.046 572.95 218.506C572.95 179.706 582.457 146.959 601.47 120.266C620.483 93.5728 647.303 80.2394 681.93 80.2661C718.65 80.2661 746.317 94.3294 764.93 122.456C783.543 150.583 792.853 183.136 792.86 220.116C792.86 256.829 783.227 288.923 763.96 316.396C744.693 343.869 717.743 357.596 683.11 357.576ZM684.11 327.106C706.557 327.106 723.333 317.323 734.44 297.756C745.547 278.189 751.1 253.523 751.1 223.756C751.1 190.623 745.417 163.493 734.05 142.366C722.683 121.239 705.25 110.673 681.75 110.666C637.083 110.666 614.75 146.146 614.75 217.106C614.75 290.446 637.863 327.113 684.09 327.106H684.11ZM695.35 618.896H646L969.08 85.6961H1017.5L695.35 618.896ZM981.17 624.366C946.537 624.366 919.537 610.699 900.17 583.366C880.803 556.033 871.08 523.216 871 484.916C871 446.376 880.44 413.759 899.32 387.066C918.2 360.373 945.087 347.039 979.98 347.066C1016.44 347.066 1043.91 361.129 1062.4 389.256C1080.89 417.383 1090.13 449.933 1090.14 486.906C1090.14 523.379 1080.57 555.413 1061.43 583.006C1042.29 610.599 1015.53 624.386 981.15 624.366H981.17ZM981.75 593.116C1004.09 593.116 1020.78 583.499 1031.81 564.266C1042.84 545.033 1048.36 520.466 1048.36 490.566C1048.36 458.566 1042.78 431.729 1031.61 410.056C1020.44 388.383 1003.05 377.529 979.42 377.496C934.493 377.496 912.03 412.976 912.03 483.936C912.017 556.729 935.25 593.123 981.73 593.116H981.75Z" fill="black"/>
<path d="M652.11 357.576C617.99 357.576 591.1 344.033 571.44 316.946C551.78 289.859 541.95 257.046 541.95 218.506C541.95 179.706 551.457 146.959 570.47 120.266C589.483 93.5728 616.303 80.2394 650.93 80.2661C687.65 80.2661 715.317 94.3294 733.93 122.456C752.543 150.583 761.853 183.136 761.86 220.116C761.86 256.829 752.227 288.923 732.96 316.396C713.693 343.869 686.743 357.596 652.11 357.576ZM653.11 327.106C675.557 327.106 692.333 317.323 703.44 297.756C714.547 278.189 720.1 253.523 720.1 223.756C720.1 190.623 714.417 163.493 703.05 142.366C691.683 121.239 674.25 110.673 650.75 110.666C606.083 110.666 583.75 146.146 583.75 217.106C583.75 290.446 606.863 327.113 653.09 327.106H653.11ZM664.35 618.896H615L938.08 85.6961H986.5L664.35 618.896ZM950.17 624.366C915.537 624.366 888.537 610.699 869.17 583.366C849.803 556.033 840.08 523.216 840 484.916C840 446.376 849.44 413.759 868.32 387.066C887.2 360.373 914.087 347.039 948.98 347.066C985.44 347.066 1012.91 361.129 1031.4 389.256C1049.89 417.383 1059.13 449.933 1059.14 486.906C1059.14 523.379 1049.57 555.413 1030.43 583.006C1011.29 610.599 984.53 624.386 950.15 624.366H950.17ZM950.75 593.116C973.09 593.116 989.777 583.499 1000.81 564.266C1011.84 545.033 1017.36 520.466 1017.36 490.566C1017.36 458.566 1011.78 431.729 1000.61 410.056C989.443 388.383 972.04 377.529 948.4 377.496C903.473 377.496 881.01 412.976 881.01 483.936C881.01 556.729 904.25 593.123 950.73 593.116H950.75Z" fill="#3F3D56"/>
<path d="M760.07 632.276C764.19 624.636 759.51 615.276 754.13 608.456C748.75 601.636 742.19 594.556 742.33 585.866C742.53 573.396 755.77 566.026 766.33 559.406C774.184 554.5 781.428 548.679 787.91 542.066C790.625 539.519 792.869 536.513 794.54 533.186C796.73 528.306 796.66 522.756 796.54 517.416C796.08 499.603 795.2 481.816 793.9 464.056" stroke="#3F3D56" stroke-width="4" stroke-miterlimit="10"/>
<path d="M814.02 463.076C813.87 459.818 812.901 456.649 811.204 453.864C809.507 451.078 807.136 448.764 804.31 447.136L799.95 455.756L800.08 445.316C798 444.708 795.834 444.448 793.67 444.546C789.825 444.726 786.121 446.042 783.024 448.328C779.928 450.614 777.579 453.766 776.274 457.387C774.969 461.008 774.767 464.934 775.694 468.67C776.62 472.405 778.634 475.782 781.479 478.373C784.325 480.964 787.875 482.654 791.681 483.227C795.487 483.801 799.377 483.233 802.86 481.596C806.343 479.958 809.263 477.325 811.249 474.028C813.235 470.732 814.2 466.92 814.02 463.076Z" fill="#6C63FF"/>
<path d="M779.32 594.816C777.278 598.783 773.934 601.928 769.849 603.723C765.764 605.517 761.186 605.853 756.883 604.673C752.58 603.493 748.813 600.87 746.215 597.242C743.616 593.615 742.344 589.205 742.611 584.751C742.878 580.297 744.668 576.07 747.682 572.779C750.695 569.489 754.749 567.334 759.162 566.677C763.575 566.02 768.08 566.901 771.922 569.171C775.763 571.441 778.707 574.963 780.26 579.146L768.1 589.036L781.5 585.916C781.494 589.014 780.747 592.066 779.32 594.816Z" fill="#6C63FF"/>
<path d="M769.71 557.006C767.157 557.126 764.606 556.741 762.201 555.875C759.797 555.008 757.587 553.677 755.697 551.956C753.807 550.235 752.275 548.159 751.188 545.846C750.1 543.533 749.479 541.029 749.36 538.476C749.209 535.428 749.784 532.388 751.04 529.606C752.203 527.006 753.921 524.693 756.073 522.829C758.226 520.965 760.761 519.595 763.5 518.816L763.39 526.816L767.8 518.096C772.956 517.855 777.996 519.671 781.813 523.146C785.629 526.621 787.909 531.47 788.15 536.626C788.391 541.782 786.575 546.822 783.1 550.639C779.625 554.455 774.776 556.735 769.62 556.976L769.71 557.006Z" fill="#6C63FF"/>
<path d="M816.95 525.576C814.367 525.748 811.775 525.402 809.327 524.56C806.879 523.718 804.624 522.396 802.693 520.672C800.761 518.948 799.194 516.856 798.081 514.518C796.968 512.181 796.332 509.645 796.211 507.059C796.09 504.473 796.486 501.889 797.376 499.458C798.266 497.026 799.631 494.797 801.393 492.9C803.155 491.003 805.277 489.476 807.636 488.409C809.994 487.342 812.542 486.756 815.13 486.686C818.767 486.509 822.38 487.365 825.55 489.156L822.11 498.576L829.19 491.786C832.99 495.25 835.259 500.08 835.5 505.216C835.589 507.017 835.42 508.822 835 510.576C834.032 514.699 831.746 518.394 828.489 521.101C825.232 523.808 821.181 525.379 816.95 525.576Z" fill="#6C63FF"/>
<path opacity="0.1" d="M811.4 468.266C806.91 468.756 802.55 470.156 798.04 470.436C793.53 470.716 788.58 469.636 785.73 466.126C784.19 464.246 783.43 461.856 782.13 459.796C780.902 457.878 779.219 456.295 777.23 455.186C775.981 457.653 775.272 460.357 775.15 463.119C775.028 465.882 775.496 468.638 776.523 471.205C777.55 473.772 779.112 476.091 781.105 478.007C783.098 479.923 785.477 481.393 788.083 482.317C790.688 483.242 793.461 483.601 796.216 483.37C798.972 483.139 801.646 482.323 804.061 480.978C806.477 479.632 808.578 477.787 810.224 475.566C811.871 473.345 813.025 470.798 813.61 468.096C812.87 468.136 812.14 468.186 811.4 468.266Z" fill="black"/>
<path opacity="0.1" d="M816.95 525.576C813.597 525.729 810.261 525.012 807.266 523.496C804.271 521.98 801.718 519.716 799.856 516.923C797.994 514.13 796.885 510.903 796.637 507.556C796.388 504.208 797.01 500.853 798.44 497.816C799.982 498.861 801.309 500.192 802.35 501.736C803.74 503.826 804.58 506.246 806.21 508.166C809.21 511.736 814.42 512.896 819.11 512.686C823.8 512.476 828.34 511.136 833.02 510.686C833.67 510.626 834.33 510.586 835.02 510.566C834.053 514.694 831.765 518.394 828.504 521.103C825.242 523.812 821.186 525.383 816.95 525.576Z" fill="black"/>
<path opacity="0.1" d="M769.71 557.006C767.157 557.126 764.606 556.741 762.201 555.875C759.797 555.008 757.587 553.677 755.697 551.956C753.807 550.235 752.275 548.159 751.188 545.846C750.1 543.533 749.479 541.029 749.36 538.476C749.209 535.428 749.784 532.388 751.04 529.606C752.645 530.675 754.038 532.031 755.15 533.606C756.66 535.736 757.61 538.196 759.38 540.166C762.66 543.816 768.18 545.106 773.15 544.986C778.12 544.866 782.61 543.706 787.4 543.336C786.213 547.156 783.878 550.517 780.713 552.963C777.547 555.409 773.706 556.821 769.71 557.006Z" fill="black"/>
<path opacity="0.1" d="M779.32 594.816C777.056 599.266 773.167 602.676 768.459 604.339C763.751 606.003 758.584 605.793 754.026 603.753C749.469 601.713 745.87 597.999 743.974 593.38C742.078 588.761 742.03 583.59 743.84 578.936C745.442 579.99 746.881 581.274 748.11 582.746C749.96 585.006 751.18 587.566 753.32 589.666C757.32 593.566 763.72 595.176 769.44 595.326C772.74 595.353 776.04 595.183 779.32 594.816Z" fill="black"/>
<path d="M1061.07 631.276C1065.19 623.636 1060.51 614.276 1055.13 607.456C1049.75 600.636 1043.19 593.556 1043.33 584.866C1043.53 572.396 1056.77 565.026 1067.33 558.406C1075.18 553.5 1082.43 547.679 1088.91 541.066C1091.62 538.519 1093.87 535.513 1095.54 532.186C1097.73 527.306 1097.66 521.756 1097.54 516.416C1097.08 498.603 1096.2 480.816 1094.9 463.056" stroke="#3F3D56" stroke-width="4" stroke-miterlimit="10"/>
<path d="M1115.02 462.076C1114.87 458.818 1113.9 455.649 1112.2 452.864C1110.51 450.078 1108.14 447.764 1105.31 446.136L1100.95 454.756L1101.08 444.316C1099 443.708 1096.83 443.448 1094.67 443.546C1090.83 443.726 1087.12 445.042 1084.02 447.328C1080.93 449.614 1078.58 452.766 1077.27 456.387C1075.97 460.008 1075.77 463.934 1076.69 467.67C1077.62 471.405 1079.63 474.782 1082.48 477.373C1085.33 479.964 1088.88 481.654 1092.68 482.227C1096.49 482.801 1100.38 482.233 1103.86 480.596C1107.34 478.958 1110.26 476.325 1112.25 473.028C1114.24 469.732 1115.2 465.92 1115.02 462.076Z" fill="#6C63FF"/>
<path d="M1080.32 593.816C1078.28 597.783 1074.93 600.928 1070.85 602.723C1066.76 604.517 1062.19 604.853 1057.88 603.673C1053.58 602.493 1049.81 599.87 1047.21 596.242C1044.62 592.615 1043.34 588.205 1043.61 583.751C1043.88 579.297 1045.67 575.07 1048.68 571.779C1051.7 568.489 1055.75 566.334 1060.16 565.677C1064.58 565.02 1069.08 565.901 1072.92 568.171C1076.76 570.441 1079.71 573.963 1081.26 578.146L1069.1 588.036L1082.5 584.916C1082.49 588.014 1081.75 591.066 1080.32 593.816Z" fill="#6C63FF"/>
<path d="M1070.71 556.006C1068.16 556.126 1065.61 555.741 1063.2 554.875C1060.8 554.008 1058.59 552.677 1056.7 550.956C1054.81 549.235 1053.28 547.159 1052.19 544.846C1051.1 542.533 1050.48 540.029 1050.36 537.476C1050.21 534.428 1050.78 531.388 1052.04 528.606C1053.2 526.006 1054.92 523.693 1057.07 521.829C1059.23 519.965 1061.76 518.595 1064.5 517.816L1064.39 525.816L1068.8 517.096H1068.85C1071.4 516.976 1073.95 517.361 1076.36 518.228C1078.76 519.094 1080.97 520.426 1082.86 522.146C1084.75 523.867 1086.28 525.943 1087.37 528.256C1088.46 530.569 1089.08 533.073 1089.2 535.626C1089.32 538.179 1088.94 540.73 1088.07 543.135C1087.2 545.539 1085.87 547.749 1084.15 549.639C1082.43 551.528 1080.35 553.061 1078.04 554.148C1075.73 555.235 1073.22 555.856 1070.67 555.976L1070.71 556.006Z" fill="#6C63FF"/>
<path d="M1117.95 524.576C1115.37 524.748 1112.78 524.402 1110.33 523.56C1107.88 522.718 1105.62 521.396 1103.69 519.672C1101.76 517.948 1100.19 515.856 1099.08 513.518C1097.97 511.181 1097.33 508.645 1097.21 506.059C1097.09 503.473 1097.49 500.889 1098.38 498.458C1099.27 496.026 1100.63 493.797 1102.39 491.9C1104.15 490.003 1106.28 488.476 1108.64 487.409C1110.99 486.342 1113.54 485.756 1116.13 485.686C1119.77 485.509 1123.38 486.365 1126.55 488.156L1123.11 497.576L1130.19 490.786C1133.99 494.25 1136.26 499.08 1136.5 504.216C1136.59 506.017 1136.42 507.822 1136 509.576C1135.03 513.699 1132.75 517.394 1129.49 520.101C1126.23 522.808 1122.18 524.379 1117.95 524.576Z" fill="#6C63FF"/>
<path opacity="0.1" d="M1112.4 467.266C1107.91 467.756 1103.55 469.156 1099.04 469.436C1094.53 469.716 1089.58 468.636 1086.73 465.126C1085.19 463.246 1084.43 460.856 1083.13 458.796C1081.9 456.878 1080.22 455.295 1078.23 454.186C1076.98 456.653 1076.27 459.357 1076.15 462.119C1076.03 464.882 1076.5 467.638 1077.52 470.205C1078.55 472.772 1080.11 475.091 1082.11 477.007C1084.1 478.923 1086.48 480.393 1089.08 481.317C1091.69 482.242 1094.46 482.601 1097.22 482.37C1099.97 482.139 1102.65 481.323 1105.06 479.978C1107.48 478.632 1109.58 476.787 1111.22 474.566C1112.87 472.345 1114.02 469.798 1114.61 467.096C1113.87 467.136 1113.14 467.186 1112.4 467.266Z" fill="black"/>
<path opacity="0.1" d="M1117.95 524.576C1114.6 524.729 1111.26 524.012 1108.27 522.496C1105.27 520.98 1102.72 518.716 1100.86 515.923C1098.99 513.13 1097.88 509.903 1097.64 506.556C1097.39 503.208 1098.01 499.853 1099.44 496.816C1100.98 497.861 1102.31 499.192 1103.35 500.736C1104.74 502.826 1105.58 505.246 1107.21 507.166C1110.21 510.736 1115.42 511.896 1120.11 511.686C1124.8 511.476 1129.34 510.136 1134.02 509.686C1134.67 509.626 1135.33 509.586 1136.02 509.566C1135.05 513.694 1132.77 517.394 1129.5 520.103C1126.24 522.812 1122.19 524.383 1117.95 524.576Z" fill="black"/>
<path opacity="0.1" d="M1070.71 556.006C1068.16 556.126 1065.61 555.741 1063.2 554.875C1060.8 554.008 1058.59 552.677 1056.7 550.956C1054.81 549.235 1053.28 547.159 1052.19 544.846C1051.1 542.533 1050.48 540.029 1050.36 537.476C1050.21 534.428 1050.78 531.388 1052.04 528.606C1053.64 529.675 1055.04 531.031 1056.15 532.606C1057.66 534.736 1058.61 537.196 1060.38 539.166C1063.66 542.816 1069.18 544.106 1074.15 543.986C1078.97 543.886 1083.61 542.706 1088.4 542.336C1087.21 546.156 1084.88 549.517 1081.71 551.963C1078.55 554.409 1074.71 555.821 1070.71 556.006Z" fill="black"/>
<path opacity="0.1" d="M1080.32 593.816C1078.06 598.266 1074.17 601.676 1069.46 603.339C1064.75 605.003 1059.58 604.793 1055.03 602.753C1050.47 600.713 1046.87 596.999 1044.97 592.38C1043.08 587.761 1043.03 582.59 1044.84 577.936C1046.44 578.99 1047.88 580.274 1049.11 581.746C1050.96 584.006 1052.18 586.566 1054.32 588.666C1058.32 592.566 1064.72 594.176 1070.44 594.326C1073.74 594.353 1077.04 594.183 1080.32 593.816Z" fill="black"/>
<path d="M109.93 618.276C105.81 610.636 110.49 601.276 115.87 594.456C121.25 587.636 127.81 580.556 127.67 571.866C127.47 559.396 114.23 552.026 103.67 545.406C95.8162 540.5 88.5723 534.679 82.09 528.066C79.3754 525.519 77.1311 522.513 75.46 519.186C73.27 514.306 73.34 508.756 73.46 503.416C73.92 485.603 74.8 467.816 76.1 450.056" stroke="#3F3D56" stroke-width="4" stroke-miterlimit="10"/>
<path d="M55.98 449.076C56.1304 445.818 57.0987 442.649 58.7957 439.864C60.4926 437.078 62.8636 434.764 65.69 433.136L70.05 441.756L69.92 431.316C71.9997 430.708 74.1655 430.448 76.33 430.546C80.1745 430.726 83.8792 432.042 86.9757 434.328C90.0722 436.614 92.4214 439.766 93.7262 443.387C95.0311 447.008 95.233 450.934 94.3064 454.67C93.3798 458.405 91.3663 461.782 88.5206 464.373C85.6749 466.964 82.1247 468.654 78.3189 469.227C74.5132 469.801 70.6229 469.233 67.1398 467.596C63.6568 465.958 60.7375 463.325 58.751 460.028C56.7646 456.732 55.8003 452.92 55.98 449.076Z" fill="#6C63FF"/>
<path d="M90.68 580.816C92.7219 584.783 96.0657 587.928 100.151 589.723C104.236 591.517 108.814 591.853 113.117 590.673C117.42 589.493 121.187 586.87 123.785 583.242C126.384 579.615 127.656 575.205 127.389 570.751C127.122 566.297 125.331 562.07 122.318 558.779C119.304 555.489 115.251 553.334 110.838 552.677C106.425 552.02 101.92 552.901 98.0782 555.171C94.2369 557.441 91.2929 560.963 89.74 565.146L101.9 575.036L88.5 571.916C88.5056 575.014 89.2531 578.066 90.68 580.816Z" fill="#6C63FF"/>
<path d="M100.29 543.006C102.843 543.126 105.394 542.741 107.799 541.875C110.203 541.008 112.413 539.677 114.303 537.956C116.193 536.235 117.725 534.159 118.812 531.846C119.9 529.533 120.521 527.029 120.64 524.476C120.791 521.428 120.216 518.388 118.96 515.606C117.797 513.006 116.079 510.693 113.927 508.829C111.774 506.965 109.239 505.595 106.5 504.816L106.61 512.816L102.2 504.096C97.0442 503.855 92.0037 505.671 88.1873 509.146C84.3709 512.621 82.0913 517.47 81.85 522.626C81.6086 527.782 83.4253 532.822 86.9004 536.639C90.3754 540.455 95.2242 542.735 100.38 542.976L100.29 543.006Z" fill="#6C63FF"/>
<path d="M53.05 511.576C55.6332 511.748 58.2246 511.402 60.6727 510.56C63.1208 509.718 65.3764 508.396 67.3075 506.672C69.2386 504.948 70.8065 502.856 71.9194 500.518C73.0322 498.181 73.6678 495.645 73.7888 493.059C73.9098 490.473 73.5139 487.889 72.6242 485.458C71.7345 483.026 70.3689 480.797 68.6072 478.9C66.8456 477.003 64.7233 475.476 62.3645 474.409C60.0058 473.342 57.4579 472.756 54.87 472.686C51.2499 472.518 47.6558 473.374 44.5 475.156L47.94 484.576L40.81 477.816C37.0173 481.272 34.7484 486.091 34.5 491.216C34.4114 493.017 34.5798 494.822 35 496.576C35.9678 500.699 38.2536 504.394 41.5109 507.101C44.7682 509.808 48.8193 511.379 53.05 511.576Z" fill="#6C63FF"/>
<path opacity="0.1" d="M58.6 454.266C63.09 454.756 67.45 456.156 71.96 456.436C76.47 456.716 81.42 455.636 84.27 452.126C85.81 450.246 86.57 447.856 87.87 445.796C89.0977 443.878 90.7811 442.295 92.77 441.186C94.0192 443.653 94.7284 446.357 94.8503 449.119C94.9723 451.882 94.5043 454.638 93.4774 457.205C92.4505 459.772 90.8884 462.091 88.8951 464.007C86.9018 465.923 84.523 467.393 81.9173 468.317C79.3116 469.242 76.5388 469.601 73.7836 469.37C71.0283 469.139 68.3539 468.323 65.9386 466.978C63.5232 465.632 61.4223 463.787 59.7758 461.566C58.1294 459.345 56.9751 456.798 56.39 454.096C57.13 454.136 57.86 454.186 58.6 454.266Z" fill="black"/>
<path opacity="0.1" d="M53.05 511.576C56.4034 511.729 59.7394 511.012 62.7345 509.496C65.7295 507.98 68.282 505.716 70.1443 502.923C72.0066 500.13 73.1155 496.903 73.3636 493.556C73.6116 490.208 72.9903 486.853 71.56 483.816C70.0183 484.861 68.691 486.192 67.65 487.736C66.26 489.826 65.42 492.246 63.79 494.166C60.79 497.736 55.58 498.896 50.89 498.686C46.2 498.476 41.66 497.136 36.98 496.686C36.33 496.626 35.67 496.586 34.98 496.566C35.9468 500.694 38.2348 504.394 41.4963 507.103C44.7578 509.812 48.8145 511.383 53.05 511.576Z" fill="black"/>
<path opacity="0.1" d="M100.29 543.006C102.843 543.126 105.394 542.741 107.799 541.875C110.203 541.008 112.413 539.677 114.303 537.956C116.193 536.235 117.725 534.159 118.812 531.846C119.9 529.533 120.521 527.029 120.64 524.476C120.791 521.428 120.216 518.388 118.96 515.606C117.355 516.675 115.962 518.031 114.85 519.606C113.34 521.736 112.39 524.196 110.62 526.166C107.34 529.816 101.82 531.106 96.85 530.986C92.03 530.886 87.39 529.706 82.6 529.336C83.7873 533.156 86.1223 536.517 89.2874 538.963C92.4526 541.409 96.2942 542.821 100.29 543.006Z" fill="black"/>
<path opacity="0.1" d="M90.68 580.816C92.9444 585.266 96.8329 588.676 101.541 590.339C106.249 592.003 111.416 591.793 115.974 589.753C120.531 587.713 124.13 583.999 126.026 579.38C127.922 574.761 127.97 569.59 126.16 564.936C124.558 565.99 123.119 567.274 121.89 568.746C120.04 571.006 118.82 573.566 116.68 575.666C112.68 579.566 106.28 581.176 100.56 581.326C97.2594 581.353 93.9602 581.183 90.68 580.816Z" fill="black"/>
<path d="M673.5 524.566C673.519 522.142 672.969 519.746 671.896 517.572C670.823 515.398 669.256 513.506 667.32 512.046C667.08 502.876 660.54 495.386 652.13 494.226C651.48 491.11 650.022 488.221 647.901 485.848C645.781 483.474 643.073 481.701 640.05 480.706C639.314 480.473 638.562 480.296 637.8 480.176H637.58L637.19 480.126H636.86H636.53H636.1H635.84H635.13C626.55 480.126 619.41 486.686 617.94 495.336C612.39 494.056 607.3 495.716 606.39 499.226C606.155 500.156 606.207 501.136 606.54 502.036C607.48 504.756 610.54 507.356 614.69 508.646L615.23 508.806C615.5 508.886 615.77 508.946 616.04 509.006H616.22C614.694 512.259 614.478 515.974 615.615 519.382C616.752 522.791 619.157 525.631 622.33 527.316C622.205 527.384 622.085 527.461 621.97 527.546C621.457 528.016 621.049 528.589 620.77 529.226C619.767 530.986 618.988 532.863 618.45 534.816C618.05 536.486 617.98 538.236 617.45 539.886C616.54 542.886 614.2 545.516 613.93 548.706C613.81 550.126 614.04 551.796 613.03 552.766C612.779 552.982 612.511 553.18 612.23 553.356C611.522 553.84 610.923 554.467 610.47 555.196C610.175 555.799 609.78 556.347 609.3 556.816C608.39 557.506 606.89 557.436 606.44 558.496C605.99 559.556 607.15 560.806 606.88 561.966C606.66 562.906 605.63 563.336 604.88 563.966C604.041 564.876 603.455 565.989 603.18 567.196C601.686 567.484 600.147 567.439 598.673 567.064C597.198 566.689 595.825 565.993 594.65 565.026C595.053 566.056 595.348 567.125 595.53 568.216C594.34 566.946 592.38 566.576 590.93 565.916C589.06 565.059 587.391 563.819 586.03 562.276L588.65 561.916L577.05 544.316L573.63 543.616L576.7 549.506C576.449 549.627 576.228 549.803 576.055 550.021C575.882 550.239 575.76 550.494 575.7 550.766C575.535 551.419 575.494 552.098 575.58 552.766C575.743 554.345 576.006 555.911 576.37 557.456L577.26 561.596C577.335 561.984 577.432 562.368 577.55 562.746C576.39 562.704 575.231 562.836 574.11 563.136C571.811 562.286 569.416 561.718 566.98 561.446C566.444 561.352 565.894 561.379 565.37 561.526C564.776 561.8 564.26 562.22 563.87 562.746C561.87 565.058 560.095 567.556 558.57 570.206C552.34 581.046 544.02 590.506 536.23 600.306C530.85 602.496 525.43 604.576 520 606.636L508.33 611.086C506 611.976 503.58 612.886 501.1 612.726C499.98 612.656 498.62 612.486 497.99 613.436C497.683 613.907 497.444 614.419 497.28 614.956C496.87 614.956 496.46 615.056 496.08 615.076H496.01C495.27 613.236 494.63 611.266 493.21 609.926C492.924 609.97 492.654 610.084 492.423 610.259C492.193 610.433 492.01 610.663 491.89 610.926C491.61 611.446 491.44 612.016 491.12 612.496C490.49 613.416 489.4 613.866 488.62 614.646C487.84 615.426 487.35 616.646 486.51 617.406C485.334 618.261 483.955 618.795 482.51 618.956C480.345 619.466 478.257 620.259 476.3 621.316C475.578 621.76 474.806 622.116 474 622.376C473.114 622.546 472.206 622.576 471.31 622.466L465.13 622.016C464.58 621.944 464.022 621.968 463.48 622.086C462.843 622.319 462.302 622.757 461.94 623.33C461.578 623.904 461.417 624.581 461.48 625.256C461.555 625.926 461.767 626.573 462.103 627.158C462.438 627.743 462.89 628.253 463.43 628.656C464.503 629.443 465.69 630.06 466.95 630.486C472.32 632.566 477.857 634.188 483.5 635.336V636.586C487.412 638.556 491.73 639.583 496.11 639.586C496.433 639.611 496.757 639.553 497.05 639.416C497.455 639.112 497.736 638.671 497.84 638.176C499.151 634.254 499.981 630.188 500.31 626.066C501.082 626.016 501.839 625.823 502.54 625.496C504.67 624.916 506.78 626.376 508.97 626.616C511.67 626.906 514.18 625.336 516.73 624.366C517.1 624.226 517.47 624.106 517.84 623.986C517.113 624.927 516.254 625.759 515.29 626.456C514.23 627.216 513.04 627.776 512 628.566C511.136 629.356 510.209 630.075 509.23 630.716C508.54 631.038 507.828 631.312 507.1 631.536C506.045 631.921 505.038 632.428 504.1 633.046C503.26 633.541 502.548 634.226 502.02 635.046C501.754 635.429 501.591 635.873 501.546 636.337C501.5 636.801 501.574 637.268 501.761 637.695C501.947 638.122 502.24 638.495 502.611 638.776C502.982 639.058 503.419 639.241 503.88 639.306C504.715 639.454 505.568 639.478 506.41 639.376C509.75 639.126 513.08 638.816 516.41 638.516C517.82 638.422 519.22 638.221 520.6 637.916C521.33 637.736 522.05 637.496 522.78 637.306C524.025 636.977 525.303 636.786 526.59 636.736C526.964 636.707 527.34 636.744 527.7 636.846C528.48 637.096 529.03 637.846 529.82 638.046C530.333 638.096 530.85 638.024 531.33 637.836C533.768 637.307 536.255 637.042 538.75 637.046C539.84 636.986 541.12 636.776 541.63 635.766C542.25 634.516 541.21 633.116 540.8 631.766C540.591 630.908 540.477 630.029 540.46 629.146C540.27 626.967 539.644 624.849 538.62 622.916C538.076 622.014 537.617 621.063 537.25 620.076C542.029 618.258 546.601 615.939 550.89 613.156C553.35 611.626 555.89 609.976 558.67 609.416C561.91 608.766 565.25 609.626 568.44 610.546C576.039 612.744 583.513 615.351 590.83 618.356C594.33 619.786 597.83 621.306 601.41 622.356C602.457 623.768 603.723 625.004 605.16 626.016C607.56 627.566 610.49 628.016 613.31 628.236C617.12 628.584 620.945 628.728 624.77 628.666C627.69 628.616 630.7 628.416 633.31 627.086C633.948 626.759 634.548 626.363 635.1 625.906C637.1 626.266 639.15 625.196 640.72 623.826C642.798 622.058 644.296 619.706 645.02 617.076C645.94 613.466 645.23 609.256 647.45 606.306C648.04 605.516 648.81 604.876 649.39 604.076C650.104 603.005 650.455 601.732 650.39 600.446L650.49 600.296C650.992 599.136 651.329 597.91 651.49 596.656C651.753 595.676 652.087 594.717 652.49 593.786C653.617 590.996 654.599 588.148 655.43 585.256C656.008 583.337 656.462 581.383 656.79 579.406C657.03 577.826 657.17 576.236 657.3 574.646C657.46 572.157 657.945 569.7 658.74 567.336C660.714 561.695 661.83 555.789 662.05 549.816C662.05 549.696 662.05 549.586 662.05 549.466C664.953 549.148 667.633 547.758 669.566 545.568C671.499 543.378 672.545 540.546 672.5 537.626C672.503 535.866 672.135 534.125 671.42 532.516C672.8 530.095 673.517 527.353 673.5 524.566ZM616.95 593.276C617.12 593.886 617.32 594.496 617.52 595.106C616.6 594.196 615.69 593.256 614.76 592.356C615.13 592.466 615.5 592.586 615.86 592.716C616.243 592.868 616.612 593.055 616.96 593.276H616.95ZM612.47 590.276C607.01 585.536 600.69 581.856 595.1 577.276C598.1 578.786 601.1 580.536 604.1 582.216C607.593 584.216 611.127 586.129 614.7 587.956C614.114 588.845 613.368 589.618 612.5 590.236L612.47 590.276ZM614.8 578.336L615.06 578.066C615.06 578.736 615.06 579.366 615.06 579.936C614.57 579.776 614.06 579.616 613.59 579.436C614.022 579.084 614.429 578.703 614.81 578.296L614.8 578.336ZM566.73 591.176C568.978 588.633 570.934 585.846 572.56 582.866C574.72 586.656 578.24 589.386 581.24 592.556C576.42 591.876 571.59 591.346 566.74 591.136L566.73 591.176Z" fill="url(#paint0_linear)"/>
<path d="M574.53 545.076L577.98 545.776L589.73 563.136L584.54 563.836L574.53 545.076Z" fill="#2F2E41"/>
<path d="M490.98 615.536C491.91 618.613 493.056 621.62 494.41 624.536C498.303 623.721 502.133 622.629 505.87 621.266C505.147 620.139 504.352 619.061 503.49 618.036C502.571 617.015 501.473 616.171 500.25 615.546C499.06 615.026 497.59 615.416 496.32 615.486C494.54 615.553 492.76 615.569 490.98 615.536Z" fill="#FBBEBE"/>
<path d="M500.27 620.176C498.33 619.566 497.14 617.606 496.35 615.716C495.56 613.826 494.92 611.766 493.42 610.376C493.135 610.421 492.865 610.535 492.634 610.71C492.404 610.884 492.22 611.113 492.1 611.376C491.81 611.876 491.64 612.446 491.31 612.926C490.69 613.826 489.59 614.266 488.8 615.036C488.01 615.806 487.52 616.976 486.67 617.746C485.491 618.594 484.113 619.124 482.67 619.286C480.49 619.78 478.385 620.56 476.41 621.606C475.679 622.03 474.9 622.365 474.09 622.606C473.197 622.776 472.283 622.806 471.38 622.696L465.15 622.246C464.596 622.177 464.035 622.204 463.49 622.326C462.855 622.547 462.313 622.974 461.951 623.54C461.588 624.106 461.426 624.777 461.49 625.446C461.573 626.113 461.793 626.755 462.137 627.331C462.482 627.908 462.942 628.407 463.49 628.796C464.573 629.57 465.766 630.177 467.03 630.596C472.458 632.637 478.043 634.232 483.73 635.366V636.596C487.682 638.552 492.03 639.579 496.44 639.596C496.782 639.626 497.127 639.568 497.44 639.426C497.845 639.129 498.129 638.696 498.24 638.206C499.735 633.837 500.607 629.279 500.83 624.666C500.945 623.5 500.857 622.322 500.57 621.186C500.23 620.066 501.39 620.536 500.31 620.096" fill="#2F2E41"/>
<path d="M619.71 596.696C601.24 597.816 583 592.396 564.5 591.816C562.204 591.676 559.899 591.824 557.64 592.256C555.285 592.887 553.005 593.773 550.84 594.896C540.93 599.506 530.67 603.326 520.42 607.146L508.66 611.526C506.3 612.396 503.87 613.286 501.36 613.136C500.24 613.066 498.87 612.896 498.23 613.836C496.32 616.666 497.23 620.836 498.49 624.016C498.9 625.016 499.59 626.166 500.69 626.286C501.468 626.233 502.23 626.04 502.94 625.716C505.08 625.146 507.22 626.586 509.42 626.816C512.15 627.106 514.68 625.556 517.25 624.606C521.51 623.036 526.17 623.086 530.65 622.336C538.17 621.086 545.13 617.596 551.65 613.616C554.13 612.106 556.65 610.486 559.49 609.936C562.76 609.296 566.13 610.136 569.34 611.046C576.993 613.212 584.526 615.779 591.91 618.736C595.753 620.406 599.694 621.842 603.71 623.036C612.464 625.341 621.723 624.801 630.15 621.496C633.15 620.326 636.31 618.266 636.48 615.076C636.58 613.256 635.17 611.656 634.23 610.076C633.62 609.076 633.02 608.076 632.36 607.126C629.18 602.486 625.32 596.356 619.71 596.696Z" fill="#2F2E41"/>
<path opacity="0.1" d="M619.71 596.696C601.24 597.816 583 592.396 564.5 591.816C562.204 591.676 559.899 591.824 557.64 592.256C555.285 592.887 553.005 593.773 550.84 594.896C540.93 599.506 530.67 603.326 520.42 607.146L508.66 611.526C506.3 612.396 503.87 613.286 501.36 613.136C500.24 613.066 498.87 612.896 498.23 613.836C496.32 616.666 497.23 620.836 498.49 624.016C498.9 625.016 499.59 626.166 500.69 626.286C501.468 626.233 502.23 626.04 502.94 625.716C505.08 625.146 507.22 626.586 509.42 626.816C512.15 627.106 514.68 625.556 517.25 624.606C521.51 623.036 526.17 623.086 530.65 622.336C538.17 621.086 545.13 617.596 551.65 613.616C554.13 612.106 556.65 610.486 559.49 609.936C562.76 609.296 566.13 610.136 569.34 611.046C576.993 613.212 584.526 615.779 591.91 618.736C595.753 620.406 599.694 621.842 603.71 623.036C612.464 625.341 621.723 624.801 630.15 621.496C633.15 620.326 636.31 618.266 636.48 615.076C636.58 613.256 635.17 611.656 634.23 610.076C633.62 609.076 633.02 608.076 632.36 607.126C629.18 602.486 625.32 596.356 619.71 596.696Z" fill="black"/>
<path d="M526.43 616.436C529.323 617.416 532.237 618.323 535.17 619.156C536.82 616.446 539.9 614.566 540.6 611.476C540.64 611.342 540.64 611.2 540.6 611.066C540.523 610.934 540.408 610.83 540.27 610.766C538.162 609.603 535.823 608.92 533.42 608.766C531.52 608.646 530.66 610.626 529.8 612.016C529.5 612.576 527.2 616.696 526.43 616.436Z" fill="#FBBEBE"/>
<path d="M530.5 614.456C529.636 614.312 528.812 613.99 528.081 613.51C527.349 613.029 526.725 612.401 526.25 611.666C525.84 610.956 525.41 609.996 524.59 610.046C523.77 610.096 523.49 610.996 523.32 611.746C522.766 614.548 521.966 617.295 520.93 619.956C519.885 622.625 518.115 624.949 515.82 626.666C514.75 627.406 513.56 627.966 512.51 628.746C511.635 629.526 510.699 630.235 509.71 630.866C509.014 631.184 508.295 631.452 507.56 631.666C506.483 632.042 505.452 632.542 504.49 633.156C503.647 633.65 502.931 634.335 502.4 635.156C502.144 635.573 501.994 636.046 501.962 636.534C501.931 637.022 502.02 637.51 502.22 637.956C502.436 638.318 502.725 638.631 503.07 638.874C503.414 639.117 503.806 639.285 504.22 639.366C505.063 639.506 505.921 639.526 506.77 639.426C510.14 639.176 513.5 638.876 516.86 638.576C518.282 638.488 519.696 638.294 521.09 637.996C521.83 637.816 522.55 637.576 523.28 637.386C524.54 637.065 525.831 636.877 527.13 636.826C527.507 636.797 527.886 636.835 528.25 636.936C529.03 637.186 529.58 637.936 530.38 638.116C530.895 638.17 531.416 638.101 531.9 637.916C534.359 637.396 536.866 637.134 539.38 637.136C540.48 637.076 541.78 636.866 542.28 635.876C542.91 634.646 541.87 633.266 541.45 631.946C541.243 631.101 541.125 630.236 541.1 629.366C540.911 627.217 540.281 625.131 539.25 623.236C538.39 621.656 537.25 619.916 537.82 618.236C538.127 617.712 538.321 617.129 538.39 616.526C538.25 613.816 532.02 614.816 530.5 614.456Z" fill="#2F2E41"/>
<path d="M592.02 567.076C588.748 565.632 586.126 563.028 584.66 559.766C584.36 559.066 584.1 558.336 583.81 557.626C582.837 555.279 581.33 553.19 579.41 551.526C579.204 551.3 578.952 551.121 578.671 551.002C578.389 550.883 578.086 550.826 577.78 550.836C577.485 550.924 577.218 551.089 577.007 551.314C576.796 551.539 576.649 551.815 576.58 552.116C576.409 552.768 576.365 553.447 576.45 554.116C576.621 555.668 576.888 557.207 577.25 558.726L578.15 562.806C578.264 563.433 578.452 564.044 578.71 564.626C579.095 565.31 579.604 565.917 580.21 566.416C581.03 567.176 581.86 567.906 582.7 568.616C583.163 569.035 583.669 569.404 584.21 569.716C585.097 570.137 586.046 570.413 587.02 570.536C590.69 571.216 594.42 572.196 597.51 574.536C597.51 574.536 597.51 571.806 597.44 571.536C597.403 570.745 597.131 569.983 596.66 569.346C595.5 568.096 593.5 567.726 592.02 567.076Z" fill="#FBBEBE"/>
<path opacity="0.1" d="M592.02 567.076C588.748 565.632 586.126 563.028 584.66 559.766C584.36 559.066 584.1 558.336 583.81 557.626C582.837 555.279 581.33 553.19 579.41 551.526C579.204 551.3 578.952 551.121 578.671 551.002C578.389 550.883 578.086 550.826 577.78 550.836C577.485 550.924 577.218 551.089 577.007 551.314C576.796 551.539 576.649 551.815 576.58 552.116C576.409 552.768 576.365 553.447 576.45 554.116C576.621 555.668 576.888 557.207 577.25 558.726L578.15 562.806C578.264 563.433 578.452 564.044 578.71 564.626C579.095 565.31 579.604 565.917 580.21 566.416C581.03 567.176 581.86 567.906 582.7 568.616C583.163 569.035 583.669 569.404 584.21 569.716C585.097 570.137 586.046 570.413 587.02 570.536C590.69 571.216 594.42 572.196 597.51 574.536C597.51 574.536 597.51 571.806 597.44 571.536C597.403 570.745 597.131 569.983 596.66 569.346C595.5 568.096 593.5 567.726 592.02 567.076Z" fill="black"/>
<path d="M629.62 535.876C632.1 535.876 634.11 533.852 634.11 531.356C634.11 528.86 632.1 526.836 629.62 526.836C627.14 526.836 625.13 528.86 625.13 531.356C625.13 533.852 627.14 535.876 629.62 535.876Z" fill="#2F2E41"/>
<path d="M626.84 528.626C625.634 528.351 624.37 528.533 623.29 529.136C622.771 529.595 622.358 530.161 622.08 530.796C621.07 532.523 620.284 534.371 619.74 536.296C619.34 537.946 619.27 539.666 618.74 541.296C617.82 544.296 615.46 546.846 615.19 549.976C615.07 551.376 615.3 553.026 614.28 553.976C614.027 554.188 613.756 554.379 613.47 554.546C612.76 555.023 612.157 555.643 611.7 556.366C611.395 557.015 610.971 557.602 610.45 558.096C609.53 558.776 608.02 558.706 607.57 559.756C607.12 560.806 608.28 562.026 608.01 563.166C607.79 564.096 606.75 564.526 606.01 565.166C605.167 566.059 604.577 567.16 604.3 568.356C602.798 568.639 601.252 568.593 599.769 568.222C598.287 567.851 596.902 567.163 595.71 566.206C596.96 569.296 596.99 572.706 597.04 576.036C597.184 577.101 596.9 578.18 596.25 579.036C599.83 579.116 603.31 580.036 606.8 580.866C608.293 581.366 609.907 581.366 611.4 580.866C612.198 580.436 612.912 579.867 613.51 579.186C615.41 577.256 617.4 575.186 617.86 572.496C617.982 570.982 618.008 569.463 617.94 567.946C618.124 566.073 618.509 564.226 619.09 562.436C620.094 558.72 620.764 554.921 621.09 551.086C621.3 548.716 623.34 546.816 624.42 544.696C626.42 540.696 628.52 536.546 628.68 532.066C628.82 530.606 628.32 528.816 626.84 528.626Z" fill="#2F2E41"/>
<path opacity="0.1" d="M626.84 528.626C625.634 528.351 624.37 528.533 623.29 529.136C622.771 529.595 622.358 530.161 622.08 530.796C621.07 532.523 620.284 534.371 619.74 536.296C619.34 537.946 619.27 539.666 618.74 541.296C617.82 544.296 615.46 546.846 615.19 549.976C615.07 551.376 615.3 553.026 614.28 553.976C614.027 554.188 613.756 554.379 613.47 554.546C612.76 555.023 612.157 555.643 611.7 556.366C611.395 557.015 610.971 557.602 610.45 558.096C609.53 558.776 608.02 558.706 607.57 559.756C607.12 560.806 608.28 562.026 608.01 563.166C607.79 564.096 606.75 564.526 606.01 565.166C605.167 566.059 604.577 567.16 604.3 568.356C602.798 568.639 601.252 568.593 599.769 568.222C598.287 567.851 596.902 567.163 595.71 566.206C596.96 569.296 596.99 572.706 597.04 576.036C597.184 577.101 596.9 578.18 596.25 579.036C599.83 579.116 603.31 580.036 606.8 580.866C608.293 581.366 609.907 581.366 611.4 580.866C612.198 580.436 612.912 579.867 613.51 579.186C615.41 577.256 617.4 575.186 617.86 572.496C617.982 570.982 618.008 569.463 617.94 567.946C618.124 566.073 618.509 564.226 619.09 562.436C620.094 558.72 620.764 554.921 621.09 551.086C621.3 548.716 623.34 546.816 624.42 544.696C626.42 540.696 628.52 536.546 628.68 532.066C628.82 530.606 628.32 528.816 626.84 528.626Z" fill="black"/>
<path d="M622.64 600.586C618.79 598.756 615.98 595.346 612.87 592.426C606.93 586.846 599.67 582.906 593.43 577.676C589.3 574.216 585.6 570.186 581.05 567.286C577.048 564.733 572.51 563.141 567.79 562.636C567.251 562.542 566.697 562.569 566.17 562.716C565.574 562.983 565.055 563.396 564.66 563.916C562.644 566.188 560.852 568.649 559.31 571.266C551.4 584.686 540.17 595.976 530.86 608.466C530.561 608.76 530.384 609.156 530.364 609.575C530.344 609.993 530.481 610.404 530.75 610.726L532.64 614.436C533.7 616.506 535.4 618.926 537.64 618.516C538.668 618.22 539.588 617.633 540.29 616.826L548.79 608.696L557.7 600.176C562.92 595.176 568.23 590.076 571.64 583.696C574.3 588.306 579.02 591.326 582.26 595.556C583.49 597.156 584.49 598.926 585.59 600.626C587.36 603.356 589.36 605.916 591.36 608.466L601.59 621.516C602.881 623.375 604.481 624.998 606.32 626.316C608.74 627.846 611.69 628.256 614.54 628.506C618.379 628.856 622.235 628.996 626.09 628.926C629.03 628.876 632.09 628.686 634.69 627.376C637.29 626.066 639.5 623.376 639.36 620.446C639.201 618.911 638.699 617.431 637.89 616.116C634.28 609.416 629.5 603.816 622.64 600.586Z" fill="#2F2E41"/>
<path d="M632.38 537.956C634.285 537.956 635.83 536.402 635.83 534.486C635.83 532.57 634.285 531.016 632.38 531.016C630.475 531.016 628.93 532.57 628.93 534.486C628.93 536.402 630.475 537.956 632.38 537.956Z" fill="#E8E8F0"/>
<path d="M631.62 531.876C632.4 533.428 632.536 535.224 632 536.876C631.467 538.501 630.72 540.048 629.78 541.476C628.971 542.951 628.002 544.333 626.89 545.596C632.22 545.856 637.39 543.766 642.09 541.226C645.88 539.226 649.66 536.676 651.68 532.866C651.079 533.009 650.454 533.026 649.846 532.914C649.239 532.802 648.661 532.564 648.15 532.216C647.133 531.507 646.221 530.659 645.44 529.696L642.77 526.696C642.139 526.038 641.586 525.31 641.12 524.526C640.536 523.461 640.288 522.244 640.41 521.036C639.347 522.149 638.159 523.135 636.87 523.976C634.96 525.226 632.87 526.126 630.94 527.356C630.26 527.796 628.75 528.506 629.14 529.356C629.53 530.206 631.08 530.916 631.62 531.876Z" fill="#FBBEBE"/>
<path opacity="0.1" d="M631.62 531.876C632.4 533.428 632.536 535.224 632 536.876C631.467 538.501 630.72 540.048 629.78 541.476C628.971 542.951 628.002 544.333 626.89 545.596C632.22 545.856 637.39 543.766 642.09 541.226C645.88 539.226 649.66 536.676 651.68 532.866C651.079 533.009 650.454 533.026 649.846 532.914C649.239 532.802 648.661 532.564 648.15 532.216C647.133 531.507 646.221 530.659 645.44 529.696L642.77 526.696C642.139 526.038 641.586 525.31 641.12 524.526C640.536 523.461 640.288 522.244 640.41 521.036C639.347 522.149 638.159 523.135 636.87 523.976C634.96 525.226 632.87 526.126 630.94 527.356C630.26 527.796 628.75 528.506 629.14 529.356C629.53 530.206 631.08 530.916 631.62 531.876Z" fill="black"/>
<path d="M631.69 532.396C631.151 533.158 630.862 534.068 630.862 535.001C630.862 535.934 631.151 536.844 631.69 537.606C631.84 537.796 632.41 538.986 632.69 538.996C632.926 538.976 633.145 538.865 633.3 538.686C634.508 537.424 635.637 536.088 636.68 534.686C637.734 533.266 639.258 532.267 640.98 531.866C643.07 531.536 645.08 532.646 646.91 533.706C647.696 534.097 648.381 534.665 648.91 535.366C649.295 536.061 649.524 536.833 649.58 537.626C650.105 542.394 650.306 547.191 650.18 551.986C650.277 555.443 650.05 558.902 649.5 562.316C649.16 564.076 648.65 565.796 648.41 567.576C648.235 569.143 648.165 570.72 648.2 572.296V578.896C648.156 580.105 648.243 581.316 648.46 582.506C648.873 583.926 649.357 585.324 649.91 586.696C650.397 588.328 650.732 590.002 650.91 591.696L651.81 598.526C652.1 600.686 652.31 603.036 651 604.766C650.42 605.556 649.64 606.176 649 606.956C646.75 609.816 647.5 613.966 646.5 617.516C645.76 620.121 644.247 622.44 642.16 624.166C640.57 625.516 638.51 626.586 636.45 626.166C633.68 625.646 632.01 622.756 631.25 620.026C630.49 617.296 630.25 614.316 628.58 612.026C627.24 610.136 625.17 608.956 623.3 607.606C621.43 606.256 619.59 604.526 619.18 602.246C619 601.246 619.11 600.246 619.01 599.246C618.861 597.972 618.373 596.761 617.595 595.74C616.817 594.72 615.779 593.927 614.59 593.446C613.17 592.896 611.41 592.696 610.59 591.446C612.626 590.167 614.11 588.173 614.75 585.856C615.371 583.573 615.706 581.222 615.75 578.856L616.23 570.916C616.44 567.366 616.54 563.846 618.1 560.656C618.8 559.236 619.67 557.896 620.39 556.486C621.355 554.507 622.177 552.462 622.85 550.366C623.98 547.116 625.12 543.856 626.13 540.566C626.534 538.973 627.139 537.437 627.93 535.996C628.86 534.496 630.09 532.696 631.69 532.396Z" fill="#E8E8F0"/>
<path d="M614.06 583.986L616.16 584.056L616.61 580.886C616.67 580.252 616.818 579.629 617.05 579.036C617.399 578.41 617.804 577.818 618.26 577.266C620.33 574.346 620.18 570.466 620.69 566.916C621.37 562.186 623.35 557.746 625.31 553.386L629.39 544.296C629.753 543.549 630.045 542.769 630.26 541.966C630.438 541.081 630.522 540.179 630.51 539.276C630.51 537.876 630.97 532.766 631 531.356C631 530.836 629.86 531.126 629.62 530.666C629.11 529.666 628.41 532.386 627.45 532.986C626.545 533.678 625.886 534.642 625.57 535.736C624.69 538.026 624.15 540.436 623.33 542.736C622.611 545.091 621.299 547.223 619.52 548.926C618.69 549.666 617.72 550.246 616.93 551.026C614.39 553.536 614.15 557.496 614.06 561.026C614 563.216 613.59 583.986 614.06 583.986Z" fill="#2F2E41"/>
<path d="M644.31 528.606C642.31 529.406 641.15 531.606 640.58 533.746C640.01 535.886 639.77 538.146 638.67 540.046C636.11 544.506 629.58 545.806 627.77 550.626C627.309 552.254 627.064 553.935 627.04 555.626C626.72 559.076 625.58 562.416 625.24 565.866C625.063 568.55 625.127 571.244 625.43 573.916L627.72 601.146C628.164 605.156 627.931 609.213 627.03 613.146C629.378 613.484 631.774 613.09 633.89 612.016C636.04 611.016 638 609.696 640.06 608.556C643.61 606.556 647.53 605.206 650.63 602.556C651.192 602.118 651.676 601.587 652.06 600.986C652.558 599.841 652.894 598.633 653.06 597.396C653.323 596.433 653.657 595.49 654.06 594.576C655.208 591.831 656.21 589.027 657.06 586.176C657.642 584.285 658.1 582.357 658.43 580.406C658.68 578.856 658.81 577.286 658.95 575.726C659.11 573.272 659.598 570.851 660.4 568.526C662.384 562.98 663.507 557.162 663.73 551.276C663.799 550.426 663.742 549.57 663.56 548.736C663.215 547.725 662.751 546.758 662.18 545.856C661.23 544.066 660.66 542.096 659.76 540.286C657.76 536.186 654.17 533.076 650.42 530.466C648.5 529.196 646.39 527.816 644.31 528.606Z" fill="#2F2E41"/>
<path d="M596.57 573.036C594.946 572.187 593.475 571.071 592.22 569.736C591.65 569.066 591.22 568.316 590.6 567.656C589.131 566.09 587.225 565.003 585.13 564.536C583.049 564.077 580.92 563.873 578.79 563.926C577.367 563.828 575.938 564.001 574.58 564.436C573.898 564.659 573.284 565.051 572.794 565.576C572.304 566.1 571.956 566.74 571.78 567.436C571.47 569.136 572.58 570.786 573.91 571.866C575.147 572.876 576.602 573.585 578.16 573.936C579.431 574.156 580.713 574.306 582 574.386C589.56 575.176 596.31 579.286 602.93 583.036C608.75 586.323 614.683 589.399 620.73 592.266C620.97 590.456 621.07 588.631 621.03 586.806C621.03 585.446 620.93 583.366 619.64 582.566C618.14 581.626 615.64 581.416 613.98 580.856C610.083 579.584 606.277 578.048 602.59 576.256C600.5 575.246 598.5 574.176 596.57 573.036Z" fill="#FBBEBE"/>
<path d="M629.62 530.326C637.059 530.326 643.09 524.259 643.09 516.776C643.09 509.293 637.059 503.226 629.62 503.226C622.181 503.226 616.15 509.293 616.15 516.776C616.15 524.259 622.181 530.326 629.62 530.326Z" fill="#FBBEBE"/>
<path d="M648.16 543.966C647.088 545.473 646.211 547.109 645.55 548.836C643.88 552.266 641.27 555.206 639.97 558.836C638.59 562.606 638.64 567.096 635.97 570.066C635.433 570.516 635.029 571.104 634.8 571.766C634.784 572.179 634.737 572.59 634.66 572.996C634.28 574.076 632.51 574.126 632.18 575.226C632.09 575.546 632.18 575.896 632.02 576.226C631.75 576.936 630.82 577.036 630.19 577.466C628.88 578.356 629.19 580.416 628.19 581.696C627.784 582.171 627.259 582.531 626.669 582.738C626.079 582.945 625.444 582.993 624.83 582.876C623.604 582.618 622.424 582.176 621.33 581.566C620.945 581.35 620.519 581.217 620.08 581.176C619.558 581.187 619.052 581.358 618.63 581.666C616.14 583.246 614.97 586.386 614.99 589.346C615.166 592.306 615.867 595.211 617.06 597.926C617.201 598.395 617.436 598.831 617.75 599.206C618.57 600.076 620.01 599.936 621.11 599.446C622.141 598.836 623.238 598.346 624.38 597.986C626.46 597.606 628.5 599.046 630.61 598.926C632.154 598.691 633.607 598.049 634.82 597.066C636.962 595.765 638.88 594.128 640.5 592.216C641.42 591.006 642.1 589.626 642.91 588.336C643.944 586.751 645.08 585.235 646.31 583.796L654.08 574.286C654.86 573.385 655.559 572.418 656.17 571.396C656.871 570.013 657.417 568.558 657.8 567.056C658.632 564.55 659.173 561.956 659.41 559.326C659.45 557.149 659.259 554.973 658.84 552.836C658.579 550.71 658.017 548.633 657.17 546.666C655.44 543.166 651.33 540.266 648.16 543.966Z" fill="#2F2E41"/>
<path d="M675.22 526.316C675.231 523.914 674.67 521.543 673.585 519.399C672.501 517.256 670.922 515.4 668.98 513.986C668.921 509.721 667.35 505.615 664.546 502.401C661.742 499.187 657.887 497.073 653.67 496.436C652.855 492.396 650.64 488.773 647.415 486.207C644.191 483.64 640.164 482.293 636.044 482.404C631.924 482.516 627.975 484.077 624.894 486.814C621.813 489.551 619.796 493.288 619.2 497.366C613.6 496.106 608.48 497.746 607.55 501.196C606.55 504.806 610.55 509.026 616.47 510.626C618.325 511.15 620.258 511.343 622.18 511.196C623.557 513.217 625.341 514.929 627.417 516.22C629.494 517.512 631.818 518.355 634.24 518.696C634.951 521.958 636.559 524.956 638.882 527.354C641.206 529.751 644.152 531.453 647.39 532.266C648.286 534.431 649.676 536.355 651.45 537.886C651.45 538.306 651.38 538.736 651.38 539.176C651.316 540.713 651.563 542.248 652.107 543.687C652.65 545.126 653.48 546.441 654.545 547.551C655.61 548.662 656.888 549.545 658.303 550.149C659.719 550.752 661.241 551.064 662.78 551.064C664.319 551.064 665.841 550.752 667.257 550.149C668.672 549.545 669.95 548.662 671.015 547.551C672.08 546.441 672.909 545.126 673.453 543.687C673.997 542.248 674.244 540.713 674.18 539.176C674.18 537.45 673.809 535.745 673.09 534.176C674.496 531.796 675.232 529.08 675.22 526.316Z" fill="#F86D70"/>
<path opacity="0.1" d="M611.35 501.886C612.28 498.436 617.35 496.796 623 498.056C623.657 493.914 625.757 490.138 628.927 487.393C632.098 484.649 636.137 483.113 640.33 483.056C640.72 483.056 641.11 483.056 641.49 483.056C639.869 482.562 638.184 482.312 636.49 482.316C632.297 482.373 628.258 483.909 625.087 486.653C621.917 489.398 619.817 493.174 619.16 497.316C613.56 496.056 608.44 497.696 607.51 501.146C606.51 504.756 610.51 508.976 616.43 510.576C617.531 510.881 618.66 511.076 619.8 511.156C614.18 509.516 610.4 505.416 611.35 501.886Z" fill="black"/>
<path opacity="0.1" d="M655.18 539.876C655.18 539.436 655.18 539.006 655.25 538.576C653.476 537.05 652.085 535.128 651.19 532.966C647.954 532.144 645.011 530.439 642.689 528.041C640.367 525.643 638.757 522.646 638.04 519.386C635.618 519.047 633.293 518.205 631.216 516.913C629.139 515.621 627.355 513.909 625.98 511.886C624.86 511.975 623.734 511.944 622.62 511.796C624.002 513.659 625.742 515.229 627.737 516.414C629.732 517.598 631.942 518.374 634.24 518.696C634.951 521.958 636.559 524.956 638.882 527.354C641.206 529.751 644.152 531.453 647.39 532.266C648.286 534.431 649.676 536.355 651.45 537.886C651.45 538.306 651.38 538.736 651.38 539.176C651.329 542.242 652.493 545.203 654.617 547.414C656.742 549.625 659.655 550.905 662.72 550.976C660.483 550.113 658.562 548.588 657.215 546.604C655.868 544.621 655.158 542.274 655.18 539.876Z" fill="black"/>
<path d="M635.783 521.741C636.697 521.046 636.689 519.495 635.763 518.277C634.838 517.058 633.346 516.634 632.432 517.329C631.517 518.024 631.525 519.575 632.451 520.793C633.376 522.011 634.868 522.435 635.783 521.741Z" fill="#FBBEBE"/>
<path d="M313.8 589.166L327.12 581.336C325.32 578.259 323.018 575.504 320.31 573.186L295.19 580.996L314.87 569.426C309.997 566.757 304.513 565.403 298.957 565.498C293.402 565.592 287.967 567.131 283.187 569.964C278.407 572.796 274.447 576.824 271.696 581.652C268.946 586.479 267.499 591.94 267.5 597.496C267.5 615.166 281.83 615.776 299.5 615.776C317.17 615.776 331.5 615.166 331.5 597.496C331.511 593.017 330.573 588.587 328.75 584.496L313.8 589.166Z" fill="#6C63FF"/>
<path opacity="0.1" d="M317.19 606.346C315.771 604.924 314.187 603.679 312.47 602.636C310.06 601.026 307.55 599.386 304.7 598.846C302.2 598.366 299.62 598.776 297.07 598.626C292.642 598.356 288.474 596.445 285.38 593.266C283.56 591.386 282.13 589.076 279.94 587.636C277.492 586.182 274.604 585.653 271.8 586.146C270.987 586.259 270.182 586.423 269.39 586.636C268.137 590.119 267.497 593.794 267.5 597.496C267.5 615.166 281.83 615.776 299.5 615.776C308.08 615.776 315.86 615.636 321.61 613.466L320.61 611.676C319.702 609.761 318.552 607.97 317.19 606.346Z" fill="black"/>
<defs>
<linearGradient id="paint0_linear" x1="567.5" y1="639.596" x2="567.5" y2="479.956" gradientUnits="userSpaceOnUse">
<stop stop-color="#808080" stop-opacity="0.25"/>
<stop offset="0.54" stop-color="#808080" stop-opacity="0.12"/>
<stop offset="1" stop-color="#808080" stop-opacity="0.1"/>
</linearGradient>
</defs>
</svg>
