<svg width="1201" height="664" viewBox="0 0 1201 664" fill="none" xmlns="http://www.w3.org/2000/svg">
<rect width="1201" height="664" fill="#FAFAFA"/>
<g clip-path="url(#clip0)">
<g opacity="0.1">
<path opacity="0.1" d="M840.37 653.94C852.57 653.94 862.46 640.997 862.46 625.03C862.46 609.063 852.57 596.12 840.37 596.12C828.17 596.12 818.28 609.063 818.28 625.03C818.28 640.997 828.17 653.94 840.37 653.94Z" fill="#3F3D56"/>
<path opacity="0.1" d="M857.85 501.35C860.945 495.979 862.55 489.879 862.5 483.68C862.5 467.68 852.61 454.77 840.41 454.77C828.21 454.77 818.33 467.71 818.33 483.68C818.268 489.875 819.859 495.975 822.94 501.35C819.917 506.747 818.33 512.829 818.33 519.015C818.33 525.201 819.917 531.283 822.94 536.68C819.917 542.079 818.33 548.163 818.33 554.35C818.33 560.537 819.917 566.621 822.94 572.02C819.859 577.395 818.268 583.495 818.33 589.69C818.33 605.69 828.22 618.6 840.41 618.6C852.6 618.6 862.5 605.66 862.5 589.69C862.562 583.495 860.971 577.395 857.89 572.02C860.913 566.621 862.5 560.537 862.5 554.35C862.5 548.163 860.913 542.079 857.89 536.68C860.913 531.283 862.5 525.201 862.5 519.015C862.5 512.829 860.913 506.747 857.89 501.35H857.85Z" fill="#3F3D56"/>
<path opacity="0.1" d="M840.37 477.26C852.57 477.26 862.46 464.317 862.46 448.35C862.46 432.383 852.57 419.44 840.37 419.44C828.17 419.44 818.28 432.383 818.28 448.35C818.28 464.317 828.17 477.26 840.37 477.26Z" fill="#3F3D56"/>
<path opacity="0.1" d="M840.37 441.92C852.57 441.92 862.46 428.977 862.46 413.01C862.46 397.043 852.57 384.1 840.37 384.1C828.17 384.1 818.28 397.043 818.28 413.01C818.28 428.977 828.17 441.92 840.37 441.92Z" fill="#3F3D56"/>
<path opacity="0.1" d="M923.05 171.19C926.065 167.347 928.811 163.3 931.27 159.08L873.27 149.55L936.04 150.02C942.056 136.919 945.336 122.728 945.68 108.316C946.024 93.904 943.424 79.5731 938.04 66.2L853.82 109.86L931.5 52.8C924.22 40.2369 914.433 29.3067 902.746 20.6897C891.06 12.0727 877.725 5.95345 863.571 2.71277C849.418 -0.527918 834.749 -0.820632 820.477 1.85285C806.206 4.52633 792.637 10.1088 780.616 18.2527C768.595 26.3966 758.38 36.9277 750.604 49.1903C742.829 61.453 737.662 75.1848 735.423 89.531C733.184 103.877 733.922 118.531 737.591 132.579C741.261 146.628 747.782 159.771 756.75 171.19C752.05 177.169 748.006 183.636 744.69 190.48L820.02 229.62L739.7 202.62C734.048 219.286 732.643 237.098 735.611 254.444C738.58 271.79 745.828 288.122 756.7 301.96C744.426 317.564 736.791 336.308 734.667 356.047C732.543 375.786 736.017 395.725 744.691 413.583C753.365 431.441 766.889 446.498 783.716 457.032C800.544 467.567 819.997 473.153 839.85 473.153C859.703 473.153 879.156 467.567 895.984 457.032C912.811 446.498 926.335 431.441 935.009 413.583C943.683 395.725 947.157 375.786 945.033 356.047C942.909 336.308 935.274 317.564 923 301.96C937.667 283.314 945.641 260.279 945.641 236.555C945.641 212.831 937.667 189.796 923 171.15L923.05 171.19Z" fill="#6C63FF"/>
<path opacity="0.1" d="M734.11 236.6C734.073 260.328 742.051 283.373 756.75 302C744.476 317.604 736.841 336.348 734.717 356.087C732.593 375.826 736.067 395.765 744.741 413.623C753.415 431.481 766.939 446.538 783.766 457.072C800.594 467.607 820.047 473.193 839.9 473.193C859.753 473.193 879.206 467.607 896.034 457.072C912.861 446.538 926.385 431.481 935.059 413.623C943.733 395.765 947.207 375.826 945.083 356.087C942.959 336.348 935.324 317.604 923.05 302C937.23 284 734.11 224.72 734.11 236.6Z" fill="black"/>
</g>
<g opacity="0.1">
<path opacity="0.1" d="M220.81 623.02C228.233 623.02 234.25 615.14 234.25 605.42C234.25 595.7 228.233 587.82 220.81 587.82C213.387 587.82 207.37 595.7 207.37 605.42C207.37 615.14 213.387 623.02 220.81 623.02Z" fill="#3F3D56"/>
<path opacity="0.1" d="M231.5 530.13C233.376 526.857 234.346 523.143 234.31 519.37C234.31 509.65 228.31 501.77 220.86 501.77C213.41 501.77 207.42 509.65 207.42 519.37C207.381 523.142 208.347 526.856 210.22 530.13C208.384 533.417 207.421 537.12 207.421 540.885C207.421 544.65 208.384 548.353 210.22 551.64C208.384 554.927 207.421 558.63 207.421 562.395C207.421 566.16 208.384 569.863 210.22 573.15C208.346 576.42 207.379 580.131 207.42 583.9C207.42 593.63 213.42 601.51 220.86 601.51C228.3 601.51 234.31 593.63 234.31 583.9C234.348 580.13 233.378 576.419 231.5 573.15C233.341 569.864 234.308 566.161 234.308 562.395C234.308 558.629 233.341 554.926 231.5 551.64C233.341 548.354 234.308 544.651 234.308 540.885C234.308 537.119 233.341 533.416 231.5 530.13V530.13Z" fill="#3F3D56"/>
<path opacity="0.1" d="M220.81 515.46C228.233 515.46 234.25 507.58 234.25 497.86C234.25 488.14 228.233 480.26 220.81 480.26C213.387 480.26 207.37 488.14 207.37 497.86C207.37 507.58 213.387 515.46 220.81 515.46Z" fill="#3F3D56"/>
<path opacity="0.1" d="M220.81 493.95C228.233 493.95 234.25 486.07 234.25 476.35C234.25 466.63 228.233 458.75 220.81 458.75C213.387 458.75 207.37 466.63 207.37 476.35C207.37 486.07 213.387 493.95 220.81 493.95Z" fill="#3F3D56"/>
<path opacity="0.1" d="M170.5 329.13C168.664 326.792 166.994 324.33 165.5 321.76L200.83 315.96L162.62 316.25C158.962 308.278 156.966 299.645 156.755 290.877C156.543 282.108 158.12 273.389 161.39 265.25L212.62 291.86L165.35 257.06C169.784 249.417 175.743 242.768 182.856 237.527C189.969 232.286 198.085 228.565 206.699 226.595C215.312 224.626 224.239 224.449 232.923 226.078C241.607 227.706 249.864 231.104 257.179 236.06C264.494 241.016 270.71 247.424 275.442 254.886C280.174 262.348 283.32 270.704 284.684 279.433C286.048 288.163 285.601 297.08 283.37 305.63C281.14 314.18 277.174 322.179 271.72 329.13C274.581 332.765 277.042 336.697 279.06 340.86L233.2 364.7L282.1 348.29C285.534 358.439 286.384 369.285 284.571 379.845C282.759 390.405 278.342 400.347 271.72 408.77C279.191 418.269 283.839 429.679 285.131 441.696C286.423 453.712 284.308 465.849 279.028 476.72C273.747 487.59 265.515 496.756 255.271 503.169C245.027 509.581 233.185 512.982 221.1 512.982C209.015 512.982 197.173 509.581 186.929 503.169C176.685 496.756 168.453 487.59 163.172 476.72C157.892 465.849 155.777 453.712 157.069 441.696C158.362 429.679 163.009 418.269 170.48 408.77C161.552 397.417 156.699 383.393 156.699 368.95C156.699 354.507 161.552 340.483 170.48 329.13H170.5Z" fill="#6C63FF"/>
<path opacity="0.1" d="M285.5 368.95C285.521 383.396 280.666 397.427 271.72 408.77C279.191 418.269 283.838 429.679 285.131 441.695C286.423 453.712 284.308 465.849 279.028 476.72C273.747 487.59 265.515 496.756 255.271 503.169C245.027 509.581 233.185 512.982 221.1 512.982C209.015 512.982 197.173 509.581 186.929 503.169C176.685 496.756 168.453 487.59 163.172 476.72C157.892 465.849 155.777 453.712 157.069 441.695C158.361 429.679 163.009 418.269 170.48 408.77C161.85 397.86 285.5 361.72 285.5 368.95Z" fill="black"/>
</g>
<g opacity="0.1">
<path opacity="0.1" d="M523.81 638.34C533.746 638.34 541.8 627.796 541.8 614.79C541.8 601.784 533.746 591.24 523.81 591.24C513.874 591.24 505.82 601.784 505.82 614.79C505.82 627.796 513.874 638.34 523.81 638.34Z" fill="#3F3D56"/>
<path opacity="0.1" d="M538.05 514.03C540.557 509.648 541.852 504.678 541.8 499.63C541.8 486.63 533.8 476.08 523.8 476.08C513.8 476.08 505.8 486.63 505.8 499.63C505.747 504.679 507.045 509.651 509.56 514.03C507.095 518.427 505.801 523.384 505.801 528.425C505.801 533.466 507.095 538.423 509.56 542.82C507.095 547.216 505.801 552.17 505.801 557.21C505.801 562.249 507.095 567.204 509.56 571.6C507.045 575.979 505.747 580.951 505.8 586C505.8 599 513.86 609.55 523.8 609.55C533.74 609.55 541.8 599 541.8 586C541.852 580.952 540.557 575.982 538.05 571.6C540.509 567.203 541.801 562.248 541.801 557.21C541.801 552.172 540.509 547.217 538.05 542.82C540.509 538.421 541.801 533.465 541.801 528.425C541.801 523.385 540.509 518.429 538.05 514.03V514.03Z" fill="#3F3D56"/>
<path opacity="0.1" d="M523.81 494.4C533.746 494.4 541.8 483.856 541.8 470.85C541.8 457.844 533.746 447.3 523.81 447.3C513.874 447.3 505.82 457.844 505.82 470.85C505.82 483.856 513.874 494.4 523.81 494.4Z" fill="#3F3D56"/>
<path opacity="0.1" d="M523.81 465.61C533.746 465.61 541.8 455.066 541.8 442.06C541.8 429.054 533.746 418.51 523.81 418.51C513.874 418.51 505.82 429.054 505.82 442.06C505.82 455.066 513.874 465.61 523.81 465.61Z" fill="#3F3D56"/>
<path opacity="0.1" d="M456.5 245.06C454.041 241.932 451.802 238.638 449.8 235.2L497.07 227.44L445.95 227.82C441.045 217.148 438.369 205.587 438.085 193.845C437.801 182.103 439.916 170.427 444.3 159.53L512.9 195.11L449.63 148.61C455.541 138.338 463.507 129.395 473.031 122.34C482.554 115.285 493.43 110.271 504.979 107.609C516.528 104.947 528.502 104.696 540.152 106.871C551.803 109.046 562.879 113.601 572.69 120.25C582.501 126.899 590.835 135.5 597.171 145.516C603.508 155.531 607.711 166.746 609.517 178.459C611.324 190.173 610.695 202.133 607.671 213.592C604.647 225.051 599.291 235.764 591.94 245.06C595.768 249.932 599.06 255.203 601.76 260.78L540.4 292.66L605.83 270.66C610.426 284.241 611.563 298.754 609.138 312.885C606.713 327.016 600.802 340.319 591.94 351.59C601.938 364.302 608.157 379.571 609.886 395.651C611.615 411.731 608.785 427.973 601.719 442.52C594.652 457.067 583.635 469.332 569.927 477.914C556.219 486.495 540.373 491.046 524.2 491.046C508.027 491.046 492.181 486.495 478.473 477.914C464.765 469.332 453.748 457.067 446.681 442.52C439.615 427.973 436.785 411.731 438.514 395.651C440.243 379.571 446.462 364.302 456.46 351.59C444.515 336.397 438.021 317.631 438.021 298.305C438.021 278.979 444.515 260.213 456.46 245.02L456.5 245.06Z" fill="#6C63FF"/>
<path opacity="0.1" d="M610.38 298.35C610.41 317.68 603.912 336.454 591.94 351.63C601.938 364.342 608.157 379.611 609.886 395.691C611.615 411.771 608.785 428.013 601.719 442.56C594.652 457.107 583.635 469.372 569.927 477.954C556.219 486.535 540.373 491.086 524.2 491.086C508.027 491.086 492.181 486.535 478.473 477.954C464.765 469.372 453.748 457.107 446.681 442.56C439.615 428.013 436.785 411.771 438.514 395.691C440.243 379.611 446.462 364.342 456.46 351.63C444.91 336.97 610.38 288.67 610.38 298.35Z" fill="black"/>
</g>
<path d="M1143 636.22C1143 643.09 1092.78 649.37 1009.75 654.22C994.65 655.09 978.47 655.92 961.31 656.7C946.483 657.367 930.943 657.997 914.69 658.59C898.943 659.15 882.593 659.67 865.64 660.15C812.1 661.68 752.91 662.78 690.03 663.33C674.77 663.47 659.307 663.577 643.64 663.65C627.32 663.723 610.813 663.757 594.12 663.75C290.98 663.75 45.25 651.44 45.25 636.25C45.25 621.06 290.98 608.75 594.12 608.75C724.63 608.75 844.48 611.04 938.68 614.84L948.98 615.26H949.04C1067.7 620.29 1143 627.86 1143 636.22Z" fill="#3F3D56"/>
<path opacity="0.15" d="M1143 636.22C1143 643.09 1092.78 649.37 1009.75 654.22C994.65 655.09 978.47 655.92 961.31 656.7C946.483 657.367 930.943 657.997 914.69 658.59C898.943 659.15 882.593 659.67 865.64 660.15C812.1 661.68 752.91 662.78 690.03 663.33C674.77 663.47 659.307 663.577 643.64 663.65C627.32 663.723 610.813 663.757 594.12 663.75C290.98 663.75 45.25 651.44 45.25 636.25C45.25 621.06 290.98 608.75 594.12 608.75C724.63 608.75 844.48 611.04 938.68 614.84L948.98 615.26H949.04C1067.7 620.29 1143 627.86 1143 636.22Z" fill="black"/>
<path d="M1097.75 631.38C1097.75 637.12 1047.53 642.38 964.5 646.38C949.41 647.11 933.22 647.8 916.07 648.45C901.237 649.01 885.697 649.537 869.45 650.03C853.703 650.497 837.353 650.933 820.4 651.34C766.85 652.62 707.66 653.54 644.78 654C629.533 654.113 614.07 654.2 598.39 654.26C582.07 654.32 565.567 654.35 548.88 654.35C245.74 654.35 0 644.06 0 631.35C0 618.64 245.74 608.35 548.88 608.35C679.38 608.35 799.23 610.26 893.43 613.44L903.73 613.79H903.8C1022.5 618.06 1097.75 624.35 1097.75 631.38Z" fill="#3F3D56"/>
<path d="M683.11 357.62C648.99 357.62 622.1 344.077 602.44 316.99C582.78 289.903 572.95 257.09 572.95 218.55C572.95 179.75 582.457 147.003 601.47 120.31C620.483 93.6167 647.303 80.2833 681.93 80.31C718.65 80.31 746.317 94.3733 764.93 122.5C783.543 150.627 792.853 183.18 792.86 220.16C792.86 256.873 783.227 288.967 763.96 316.44C744.693 343.913 717.743 357.64 683.11 357.62ZM684.11 327.15C706.557 327.15 723.333 317.367 734.44 297.8C745.547 278.233 751.1 253.567 751.1 223.8C751.1 190.667 745.417 163.537 734.05 142.41C722.683 121.283 705.25 110.717 681.75 110.71C637.083 110.71 614.75 146.19 614.75 217.15C614.75 290.49 637.863 327.157 684.09 327.15H684.11ZM695.35 618.94H646L969.08 85.74H1017.5L695.35 618.94ZM981.17 624.41C946.537 624.41 919.537 610.743 900.17 583.41C880.803 556.077 871.08 523.26 871 484.96C871 446.42 880.44 413.803 899.32 387.11C918.2 360.417 945.087 347.083 979.98 347.11C1016.44 347.11 1043.91 361.173 1062.4 389.3C1080.89 417.427 1090.13 449.977 1090.14 486.95C1090.14 523.423 1080.57 555.457 1061.43 583.05C1042.29 610.643 1015.53 624.43 981.15 624.41H981.17ZM981.75 593.16C1004.09 593.16 1020.78 583.543 1031.81 564.31C1042.84 545.077 1048.36 520.51 1048.36 490.61C1048.36 458.61 1042.78 431.773 1031.61 410.1C1020.44 388.427 1003.05 377.573 979.42 377.54C934.493 377.54 912.03 413.02 912.03 483.98C912.017 556.773 935.25 593.167 981.73 593.16H981.75Z" fill="#3F3D56"/>
<path d="M683.11 357.62C648.99 357.62 622.1 344.077 602.44 316.99C582.78 289.903 572.95 257.09 572.95 218.55C572.95 179.75 582.457 147.003 601.47 120.31C620.483 93.6167 647.303 80.2833 681.93 80.31C718.65 80.31 746.317 94.3733 764.93 122.5C783.543 150.627 792.853 183.18 792.86 220.16C792.86 256.873 783.227 288.967 763.96 316.44C744.693 343.913 717.743 357.64 683.11 357.62ZM684.11 327.15C706.557 327.15 723.333 317.367 734.44 297.8C745.547 278.233 751.1 253.567 751.1 223.8C751.1 190.667 745.417 163.537 734.05 142.41C722.683 121.283 705.25 110.717 681.75 110.71C637.083 110.71 614.75 146.19 614.75 217.15C614.75 290.49 637.863 327.157 684.09 327.15H684.11ZM695.35 618.94H646L969.08 85.74H1017.5L695.35 618.94ZM981.17 624.41C946.537 624.41 919.537 610.743 900.17 583.41C880.803 556.077 871.08 523.26 871 484.96C871 446.42 880.44 413.803 899.32 387.11C918.2 360.417 945.087 347.083 979.98 347.11C1016.44 347.11 1043.91 361.173 1062.4 389.3C1080.89 417.427 1090.13 449.977 1090.14 486.95C1090.14 523.423 1080.57 555.457 1061.43 583.05C1042.29 610.643 1015.53 624.43 981.15 624.41H981.17ZM981.75 593.16C1004.09 593.16 1020.78 583.543 1031.81 564.31C1042.84 545.077 1048.36 520.51 1048.36 490.61C1048.36 458.61 1042.78 431.773 1031.61 410.1C1020.44 388.427 1003.05 377.573 979.42 377.54C934.493 377.54 912.03 413.02 912.03 483.98C912.017 556.773 935.25 593.167 981.73 593.16H981.75Z" fill="#3F3D56"/>
<path opacity="0.15" d="M683.11 357.62C648.99 357.62 622.1 344.077 602.44 316.99C582.78 289.903 572.95 257.09 572.95 218.55C572.95 179.75 582.457 147.003 601.47 120.31C620.483 93.6167 647.303 80.2833 681.93 80.31C718.65 80.31 746.317 94.3733 764.93 122.5C783.543 150.627 792.853 183.18 792.86 220.16C792.86 256.873 783.227 288.967 763.96 316.44C744.693 343.913 717.743 357.64 683.11 357.62ZM684.11 327.15C706.557 327.15 723.333 317.367 734.44 297.8C745.547 278.233 751.1 253.567 751.1 223.8C751.1 190.667 745.417 163.537 734.05 142.41C722.683 121.283 705.25 110.717 681.75 110.71C637.083 110.71 614.75 146.19 614.75 217.15C614.75 290.49 637.863 327.157 684.09 327.15H684.11ZM695.35 618.94H646L969.08 85.74H1017.5L695.35 618.94ZM981.17 624.41C946.537 624.41 919.537 610.743 900.17 583.41C880.803 556.077 871.08 523.26 871 484.96C871 446.42 880.44 413.803 899.32 387.11C918.2 360.417 945.087 347.083 979.98 347.11C1016.44 347.11 1043.91 361.173 1062.4 389.3C1080.89 417.427 1090.13 449.977 1090.14 486.95C1090.14 523.423 1080.57 555.457 1061.43 583.05C1042.29 610.643 1015.53 624.43 981.15 624.41H981.17ZM981.75 593.16C1004.09 593.16 1020.78 583.543 1031.81 564.31C1042.84 545.077 1048.36 520.51 1048.36 490.61C1048.36 458.61 1042.78 431.773 1031.61 410.1C1020.44 388.427 1003.05 377.573 979.42 377.54C934.493 377.54 912.03 413.02 912.03 483.98C912.017 556.773 935.25 593.167 981.73 593.16H981.75Z" fill="black"/>
<path d="M652.11 357.62C617.99 357.62 591.1 344.077 571.44 316.99C551.78 289.903 541.95 257.09 541.95 218.55C541.95 179.75 551.457 147.003 570.47 120.31C589.483 93.6167 616.303 80.2833 650.93 80.31C687.65 80.31 715.317 94.3733 733.93 122.5C752.543 150.627 761.853 183.18 761.86 220.16C761.86 256.873 752.227 288.967 732.96 316.44C713.693 343.913 686.743 357.64 652.11 357.62ZM653.11 327.15C675.557 327.15 692.333 317.367 703.44 297.8C714.547 278.233 720.1 253.567 720.1 223.8C720.1 190.667 714.417 163.537 703.05 142.41C691.683 121.283 674.25 110.717 650.75 110.71C606.083 110.71 583.75 146.19 583.75 217.15C583.75 290.49 606.863 327.157 653.09 327.15H653.11ZM664.35 618.94H615L938.08 85.74H986.5L664.35 618.94ZM950.17 624.41C915.537 624.41 888.537 610.743 869.17 583.41C849.803 556.077 840.08 523.26 840 484.96C840 446.42 849.44 413.803 868.32 387.11C887.2 360.417 914.087 347.083 948.98 347.11C985.44 347.11 1012.91 361.173 1031.4 389.3C1049.89 417.427 1059.13 449.977 1059.14 486.95C1059.14 523.423 1049.57 555.457 1030.43 583.05C1011.29 610.643 984.53 624.43 950.15 624.41H950.17ZM950.75 593.16C973.09 593.16 989.777 583.543 1000.81 564.31C1011.84 545.077 1017.36 520.51 1017.36 490.61C1017.36 458.61 1011.78 431.773 1000.61 410.1C989.443 388.427 972.04 377.573 948.4 377.54C903.473 377.54 881.01 413.02 881.01 483.98C881.01 556.773 904.25 593.167 950.73 593.16H950.75Z" fill="#3F3D56"/>
<path d="M760.07 632.32C764.19 624.68 759.51 615.32 754.13 608.5C748.75 601.68 742.19 594.6 742.33 585.91C742.53 573.44 755.77 566.07 766.33 559.45C774.184 554.544 781.428 548.723 787.91 542.11C790.625 539.563 792.869 536.557 794.54 533.23C796.73 528.35 796.66 522.8 796.54 517.46C796.08 499.647 795.2 481.86 793.9 464.1" stroke="#3F3D56" stroke-width="4" stroke-miterlimit="10"/>
<path d="M814.02 463.12C813.87 459.862 812.901 456.693 811.204 453.908C809.507 451.122 807.136 448.808 804.31 447.18L799.95 455.8L800.08 445.36C798 444.752 795.834 444.492 793.67 444.59C789.825 444.77 786.121 446.086 783.024 448.372C779.928 450.658 777.579 453.81 776.274 457.431C774.969 461.052 774.767 464.978 775.694 468.714C776.62 472.449 778.634 475.826 781.479 478.417C784.325 481.008 787.875 482.698 791.681 483.271C795.487 483.845 799.377 483.277 802.86 481.64C806.343 480.002 809.263 477.369 811.249 474.072C813.235 470.776 814.2 466.964 814.02 463.12V463.12Z" fill="#6C63FF"/>
<path d="M779.32 594.86C777.278 598.827 773.934 601.972 769.849 603.767C765.764 605.561 761.186 605.897 756.883 604.717C752.58 603.537 748.813 600.914 746.215 597.286C743.616 593.659 742.344 589.249 742.611 584.795C742.878 580.341 744.668 576.114 747.682 572.823C750.695 569.533 754.749 567.378 759.162 566.721C763.575 566.064 768.08 566.945 771.922 569.215C775.763 571.485 778.707 575.007 780.26 579.19L768.1 589.08L781.5 585.96C781.494 589.058 780.747 592.11 779.32 594.86V594.86Z" fill="#6C63FF"/>
<path d="M769.71 557.05C767.157 557.17 764.606 556.785 762.201 555.919C759.797 555.052 757.587 553.721 755.697 552C753.807 550.279 752.275 548.203 751.188 545.89C750.1 543.577 749.479 541.073 749.36 538.52C749.209 535.472 749.784 532.432 751.04 529.65C752.203 527.05 753.921 524.737 756.073 522.873C758.226 521.009 760.761 519.639 763.5 518.86L763.39 526.86L767.8 518.14C772.956 517.899 777.996 519.715 781.813 523.19C785.629 526.665 787.909 531.514 788.15 536.67C788.391 541.826 786.575 546.866 783.1 550.683C779.625 554.499 774.776 556.779 769.62 557.02L769.71 557.05Z" fill="#6C63FF"/>
<path d="M816.95 525.62C814.367 525.792 811.775 525.446 809.327 524.604C806.879 523.762 804.624 522.44 802.693 520.716C800.761 518.992 799.194 516.9 798.081 514.562C796.968 512.225 796.332 509.689 796.211 507.103C796.09 504.517 796.486 501.933 797.376 499.502C798.266 497.07 799.631 494.841 801.393 492.944C803.155 491.047 805.277 489.52 807.636 488.453C809.994 487.386 812.542 486.8 815.13 486.73C818.767 486.553 822.38 487.409 825.55 489.2L822.11 498.62L829.19 491.83C832.99 495.294 835.259 500.124 835.5 505.26C835.589 507.061 835.42 508.866 835 510.62C834.032 514.743 831.746 518.438 828.489 521.145C825.232 523.852 821.181 525.423 816.95 525.62V525.62Z" fill="#6C63FF"/>
<path opacity="0.1" d="M811.4 468.31C806.91 468.8 802.55 470.2 798.04 470.48C793.53 470.76 788.58 469.68 785.73 466.17C784.19 464.29 783.43 461.9 782.13 459.84C780.902 457.922 779.219 456.339 777.23 455.23C775.981 457.697 775.272 460.401 775.15 463.163C775.028 465.926 775.496 468.682 776.523 471.249C777.55 473.816 779.112 476.135 781.105 478.051C783.098 479.967 785.477 481.437 788.083 482.361C790.688 483.286 793.461 483.645 796.216 483.414C798.972 483.183 801.646 482.367 804.061 481.022C806.477 479.676 808.578 477.831 810.224 475.61C811.871 473.389 813.025 470.842 813.61 468.14C812.87 468.18 812.14 468.23 811.4 468.31Z" fill="black"/>
<path opacity="0.1" d="M816.95 525.62C813.597 525.773 810.261 525.056 807.266 523.54C804.271 522.024 801.718 519.76 799.856 516.967C797.994 514.174 796.885 510.947 796.637 507.6C796.388 504.252 797.01 500.897 798.44 497.86C799.982 498.905 801.309 500.236 802.35 501.78C803.74 503.87 804.58 506.29 806.21 508.21C809.21 511.78 814.42 512.94 819.11 512.73C823.8 512.52 828.34 511.18 833.02 510.73C833.67 510.67 834.33 510.63 835.02 510.61C834.053 514.738 831.765 518.438 828.504 521.147C825.242 523.856 821.186 525.427 816.95 525.62V525.62Z" fill="black"/>
<path opacity="0.1" d="M769.71 557.05C767.157 557.17 764.606 556.785 762.201 555.919C759.797 555.052 757.587 553.721 755.697 552C753.807 550.279 752.275 548.203 751.188 545.89C750.1 543.577 749.479 541.073 749.36 538.52C749.209 535.472 749.784 532.432 751.04 529.65C752.645 530.719 754.038 532.075 755.15 533.65C756.66 535.78 757.61 538.24 759.38 540.21C762.66 543.86 768.18 545.15 773.15 545.03C778.12 544.91 782.61 543.75 787.4 543.38C786.213 547.2 783.878 550.561 780.713 553.007C777.547 555.453 773.706 556.865 769.71 557.05V557.05Z" fill="black"/>
<path opacity="0.1" d="M779.32 594.86C777.056 599.31 773.167 602.72 768.459 604.383C763.751 606.047 758.584 605.837 754.026 603.797C749.469 601.757 745.87 598.043 743.974 593.424C742.078 588.805 742.03 583.634 743.84 578.98C745.442 580.034 746.881 581.318 748.11 582.79C749.96 585.05 751.18 587.61 753.32 589.71C757.32 593.61 763.72 595.22 769.44 595.37C772.74 595.397 776.04 595.227 779.32 594.86V594.86Z" fill="black"/>
<path d="M1061.07 631.32C1065.19 623.68 1060.51 614.32 1055.13 607.5C1049.75 600.68 1043.19 593.6 1043.33 584.91C1043.53 572.44 1056.77 565.07 1067.33 558.45C1075.18 553.544 1082.43 547.723 1088.91 541.11C1091.62 538.563 1093.87 535.557 1095.54 532.23C1097.73 527.35 1097.66 521.8 1097.54 516.46C1097.08 498.647 1096.2 480.86 1094.9 463.1" stroke="#3F3D56" stroke-width="4" stroke-miterlimit="10"/>
<path d="M1115.02 462.12C1114.87 458.862 1113.9 455.693 1112.2 452.908C1110.51 450.122 1108.14 447.808 1105.31 446.18L1100.95 454.8L1101.08 444.36C1099 443.752 1096.83 443.492 1094.67 443.59C1090.83 443.77 1087.12 445.086 1084.02 447.372C1080.93 449.658 1078.58 452.81 1077.27 456.431C1075.97 460.052 1075.77 463.978 1076.69 467.714C1077.62 471.449 1079.63 474.826 1082.48 477.417C1085.33 480.008 1088.88 481.698 1092.68 482.271C1096.49 482.845 1100.38 482.277 1103.86 480.64C1107.34 479.002 1110.26 476.369 1112.25 473.072C1114.24 469.776 1115.2 465.964 1115.02 462.12V462.12Z" fill="#6C63FF"/>
<path d="M1080.32 593.86C1078.28 597.827 1074.93 600.972 1070.85 602.767C1066.76 604.561 1062.19 604.897 1057.88 603.717C1053.58 602.537 1049.81 599.914 1047.21 596.286C1044.62 592.659 1043.34 588.249 1043.61 583.795C1043.88 579.341 1045.67 575.114 1048.68 571.823C1051.7 568.533 1055.75 566.378 1060.16 565.721C1064.58 565.064 1069.08 565.945 1072.92 568.215C1076.76 570.485 1079.71 574.007 1081.26 578.19L1069.1 588.08L1082.5 584.96C1082.49 588.058 1081.75 591.11 1080.32 593.86V593.86Z" fill="#6C63FF"/>
<path d="M1070.71 556.05C1068.16 556.17 1065.61 555.785 1063.2 554.919C1060.8 554.052 1058.59 552.721 1056.7 551C1054.81 549.279 1053.28 547.203 1052.19 544.89C1051.1 542.577 1050.48 540.073 1050.36 537.52C1050.21 534.472 1050.78 531.432 1052.04 528.65C1053.2 526.05 1054.92 523.737 1057.07 521.873C1059.23 520.009 1061.76 518.639 1064.5 517.86L1064.39 525.86L1068.8 517.14H1068.85C1071.4 517.02 1073.95 517.405 1076.36 518.272C1078.76 519.138 1080.97 520.47 1082.86 522.19C1084.75 523.911 1086.28 525.987 1087.37 528.3C1088.46 530.613 1089.08 533.117 1089.2 535.67C1089.32 538.223 1088.94 540.774 1088.07 543.179C1087.2 545.583 1085.87 547.793 1084.15 549.683C1082.43 551.572 1080.35 553.105 1078.04 554.192C1075.73 555.279 1073.22 555.9 1070.67 556.02L1070.71 556.05Z" fill="#6C63FF"/>
<path d="M1117.95 524.62C1115.37 524.792 1112.78 524.446 1110.33 523.604C1107.88 522.762 1105.62 521.44 1103.69 519.716C1101.76 517.992 1100.19 515.9 1099.08 513.562C1097.97 511.225 1097.33 508.689 1097.21 506.103C1097.09 503.517 1097.49 500.933 1098.38 498.502C1099.27 496.07 1100.63 493.841 1102.39 491.944C1104.15 490.047 1106.28 488.52 1108.64 487.453C1110.99 486.386 1113.54 485.8 1116.13 485.73C1119.77 485.553 1123.38 486.409 1126.55 488.2L1123.11 497.62L1130.19 490.83C1133.99 494.294 1136.26 499.124 1136.5 504.26C1136.59 506.061 1136.42 507.866 1136 509.62C1135.03 513.743 1132.75 517.438 1129.49 520.145C1126.23 522.852 1122.18 524.423 1117.95 524.62V524.62Z" fill="#6C63FF"/>
<path opacity="0.1" d="M1112.4 467.31C1107.91 467.8 1103.55 469.2 1099.04 469.48C1094.53 469.76 1089.58 468.68 1086.73 465.17C1085.19 463.29 1084.43 460.9 1083.13 458.84C1081.9 456.922 1080.22 455.339 1078.23 454.23C1076.98 456.697 1076.27 459.401 1076.15 462.163C1076.03 464.926 1076.5 467.682 1077.52 470.249C1078.55 472.816 1080.11 475.135 1082.11 477.051C1084.1 478.967 1086.48 480.437 1089.08 481.361C1091.69 482.286 1094.46 482.645 1097.22 482.414C1099.97 482.183 1102.65 481.367 1105.06 480.022C1107.48 478.676 1109.58 476.831 1111.22 474.61C1112.87 472.389 1114.02 469.842 1114.61 467.14C1113.87 467.18 1113.14 467.23 1112.4 467.31Z" fill="black"/>
<path opacity="0.1" d="M1117.95 524.62C1114.6 524.773 1111.26 524.056 1108.27 522.54C1105.27 521.024 1102.72 518.76 1100.86 515.967C1098.99 513.174 1097.88 509.947 1097.64 506.6C1097.39 503.252 1098.01 499.897 1099.44 496.86C1100.98 497.905 1102.31 499.236 1103.35 500.78C1104.74 502.87 1105.58 505.29 1107.21 507.21C1110.21 510.78 1115.42 511.94 1120.11 511.73C1124.8 511.52 1129.34 510.18 1134.02 509.73C1134.67 509.67 1135.33 509.63 1136.02 509.61C1135.05 513.738 1132.77 517.438 1129.5 520.147C1126.24 522.856 1122.19 524.427 1117.95 524.62V524.62Z" fill="black"/>
<path opacity="0.1" d="M1070.71 556.05C1068.16 556.17 1065.61 555.785 1063.2 554.919C1060.8 554.052 1058.59 552.721 1056.7 551C1054.81 549.279 1053.28 547.203 1052.19 544.89C1051.1 542.577 1050.48 540.073 1050.36 537.52C1050.21 534.472 1050.78 531.432 1052.04 528.65C1053.64 529.719 1055.04 531.075 1056.15 532.65C1057.66 534.78 1058.61 537.24 1060.38 539.21C1063.66 542.86 1069.18 544.15 1074.15 544.03C1078.97 543.93 1083.61 542.75 1088.4 542.38C1087.21 546.2 1084.88 549.561 1081.71 552.007C1078.55 554.453 1074.71 555.865 1070.71 556.05V556.05Z" fill="black"/>
<path opacity="0.1" d="M1080.32 593.86C1078.06 598.31 1074.17 601.72 1069.46 603.383C1064.75 605.047 1059.58 604.837 1055.03 602.797C1050.47 600.757 1046.87 597.043 1044.97 592.424C1043.08 587.805 1043.03 582.634 1044.84 577.98C1046.44 579.034 1047.88 580.318 1049.11 581.79C1050.96 584.05 1052.18 586.61 1054.32 588.71C1058.32 592.61 1064.72 594.22 1070.44 594.37C1073.74 594.397 1077.04 594.227 1080.32 593.86V593.86Z" fill="black"/>
<path d="M109.93 618.32C105.81 610.68 110.49 601.32 115.87 594.5C121.25 587.68 127.81 580.6 127.67 571.91C127.47 559.44 114.23 552.07 103.67 545.45C95.8162 540.544 88.5723 534.723 82.09 528.11C79.3754 525.563 77.1311 522.557 75.46 519.23C73.27 514.35 73.34 508.8 73.46 503.46C73.92 485.647 74.8 467.86 76.1 450.1" stroke="#3F3D56" stroke-width="4" stroke-miterlimit="10"/>
<path d="M55.98 449.12C56.1304 445.862 57.0987 442.693 58.7957 439.908C60.4926 437.122 62.8636 434.808 65.69 433.18L70.05 441.8L69.92 431.36C71.9997 430.752 74.1655 430.492 76.33 430.59C80.1745 430.77 83.8792 432.086 86.9757 434.372C90.0722 436.658 92.4214 439.81 93.7262 443.431C95.0311 447.052 95.233 450.978 94.3064 454.714C93.3798 458.449 91.3663 461.826 88.5206 464.417C85.6749 467.008 82.1247 468.698 78.3189 469.271C74.5132 469.845 70.6229 469.277 67.1398 467.64C63.6568 466.002 60.7375 463.369 58.751 460.072C56.7646 456.776 55.8003 452.964 55.98 449.12V449.12Z" fill="#6C63FF"/>
<path d="M90.68 580.86C92.7219 584.827 96.0657 587.972 100.151 589.767C104.236 591.561 108.814 591.897 113.117 590.717C117.42 589.537 121.187 586.914 123.785 583.286C126.384 579.659 127.656 575.249 127.389 570.795C127.122 566.341 125.331 562.114 122.318 558.823C119.304 555.533 115.251 553.378 110.838 552.721C106.425 552.064 101.92 552.945 98.0782 555.215C94.2369 557.485 91.2929 561.007 89.74 565.19L101.9 575.08L88.5 571.96C88.5056 575.058 89.2531 578.11 90.68 580.86V580.86Z" fill="#6C63FF"/>
<path d="M100.29 543.05C102.843 543.17 105.394 542.785 107.799 541.919C110.203 541.052 112.413 539.721 114.303 538C116.193 536.279 117.725 534.203 118.812 531.89C119.9 529.577 120.521 527.073 120.64 524.52C120.791 521.472 120.216 518.432 118.96 515.65C117.797 513.05 116.079 510.737 113.927 508.873C111.774 507.009 109.239 505.639 106.5 504.86L106.61 512.86L102.2 504.14C97.0442 503.899 92.0037 505.715 88.1873 509.19C84.3709 512.665 82.0913 517.514 81.85 522.67C81.6086 527.826 83.4253 532.866 86.9004 536.683C90.3754 540.499 95.2242 542.779 100.38 543.02L100.29 543.05Z" fill="#6C63FF"/>
<path d="M53.05 511.62C55.6332 511.792 58.2246 511.446 60.6727 510.604C63.1208 509.762 65.3764 508.44 67.3075 506.716C69.2386 504.992 70.8065 502.9 71.9194 500.562C73.0322 498.225 73.6678 495.689 73.7888 493.103C73.9098 490.517 73.5139 487.933 72.6242 485.502C71.7345 483.07 70.3689 480.841 68.6072 478.944C66.8456 477.047 64.7233 475.52 62.3645 474.453C60.0058 473.386 57.4579 472.8 54.87 472.73C51.2499 472.562 47.6558 473.418 44.5 475.2L47.94 484.62L40.81 477.86C37.0173 481.316 34.7484 486.135 34.5 491.26C34.4114 493.061 34.5798 494.866 35 496.62C35.9678 500.743 38.2536 504.438 41.5109 507.145C44.7682 509.852 48.8193 511.423 53.05 511.62Z" fill="#6C63FF"/>
<path opacity="0.1" d="M58.6 454.31C63.09 454.8 67.45 456.2 71.96 456.48C76.47 456.76 81.42 455.68 84.27 452.17C85.81 450.29 86.57 447.9 87.87 445.84C89.0977 443.922 90.7811 442.339 92.77 441.23C94.0192 443.697 94.7284 446.401 94.8503 449.163C94.9723 451.926 94.5043 454.682 93.4774 457.249C92.4505 459.816 90.8884 462.135 88.8951 464.051C86.9018 465.967 84.523 467.437 81.9173 468.361C79.3116 469.286 76.5388 469.645 73.7836 469.414C71.0283 469.183 68.3539 468.367 65.9386 467.022C63.5232 465.676 61.4223 463.831 59.7758 461.61C58.1294 459.389 56.9751 456.842 56.39 454.14C57.13 454.18 57.86 454.23 58.6 454.31Z" fill="black"/>
<path opacity="0.1" d="M53.05 511.62C56.4034 511.773 59.7394 511.056 62.7345 509.54C65.7295 508.024 68.282 505.76 70.1443 502.967C72.0066 500.174 73.1155 496.947 73.3636 493.6C73.6116 490.252 72.9903 486.897 71.56 483.86C70.0183 484.905 68.691 486.236 67.65 487.78C66.26 489.87 65.42 492.29 63.79 494.21C60.79 497.78 55.58 498.94 50.89 498.73C46.2 498.52 41.66 497.18 36.98 496.73C36.33 496.67 35.67 496.63 34.98 496.61C35.9468 500.738 38.2348 504.438 41.4963 507.147C44.7578 509.856 48.8145 511.427 53.05 511.62V511.62Z" fill="black"/>
<path opacity="0.1" d="M100.29 543.05C102.843 543.17 105.394 542.785 107.799 541.919C110.203 541.052 112.413 539.721 114.303 538C116.193 536.279 117.725 534.203 118.812 531.89C119.9 529.577 120.521 527.073 120.64 524.52C120.791 521.472 120.216 518.432 118.96 515.65C117.355 516.719 115.962 518.075 114.85 519.65C113.34 521.78 112.39 524.24 110.62 526.21C107.34 529.86 101.82 531.15 96.85 531.03C92.03 530.93 87.39 529.75 82.6 529.38C83.7873 533.2 86.1223 536.561 89.2874 539.007C92.4526 541.453 96.2942 542.865 100.29 543.05V543.05Z" fill="black"/>
<path opacity="0.1" d="M90.68 580.86C92.9444 585.31 96.8329 588.72 101.541 590.383C106.249 592.047 111.416 591.837 115.974 589.797C120.531 587.757 124.13 584.043 126.026 579.424C127.922 574.805 127.97 569.634 126.16 564.98C124.558 566.034 123.119 567.318 121.89 568.79C120.04 571.05 118.82 573.61 116.68 575.71C112.68 579.61 106.28 581.22 100.56 581.37C97.2594 581.397 93.9602 581.227 90.68 580.86V580.86Z" fill="black"/>
<path d="M673.5 524.61C673.519 522.186 672.969 519.79 671.896 517.616C670.823 515.442 669.256 513.55 667.32 512.09C667.08 502.92 660.54 495.43 652.13 494.27C651.48 491.154 650.022 488.265 647.901 485.892C645.781 483.518 643.073 481.745 640.05 480.75V480.75C639.314 480.517 638.562 480.34 637.8 480.22H637.58L637.19 480.17H636.86H636.53H636.1H635.84H635.13C626.55 480.17 619.41 486.73 617.94 495.38C612.39 494.1 607.3 495.76 606.39 499.27C606.155 500.2 606.207 501.18 606.54 502.08C607.48 504.8 610.54 507.4 614.69 508.69L615.23 508.85C615.5 508.93 615.77 508.99 616.04 509.05H616.22C614.694 512.303 614.478 516.018 615.615 519.426C616.752 522.835 619.157 525.675 622.33 527.36C622.205 527.428 622.085 527.505 621.97 527.59C621.457 528.06 621.049 528.633 620.77 529.27C619.767 531.03 618.988 532.907 618.45 534.86C618.05 536.53 617.98 538.28 617.45 539.93C616.54 542.93 614.2 545.56 613.93 548.75C613.81 550.17 614.04 551.84 613.03 552.81C612.779 553.026 612.511 553.224 612.23 553.4C611.522 553.884 610.923 554.511 610.47 555.24C610.175 555.843 609.78 556.391 609.3 556.86C608.39 557.55 606.89 557.48 606.44 558.54C605.99 559.6 607.15 560.85 606.88 562.01C606.66 562.95 605.63 563.38 604.88 564.01C604.041 564.92 603.455 566.033 603.18 567.24C601.686 567.528 600.147 567.483 598.673 567.108C597.198 566.733 595.825 566.037 594.65 565.07C595.053 566.1 595.348 567.169 595.53 568.26C594.34 566.99 592.38 566.62 590.93 565.96C589.06 565.103 587.391 563.863 586.03 562.32L588.65 561.96L577.05 544.36L573.63 543.66L576.7 549.55C576.449 549.671 576.228 549.847 576.055 550.065C575.882 550.283 575.76 550.538 575.7 550.81C575.535 551.463 575.494 552.142 575.58 552.81C575.743 554.389 576.006 555.955 576.37 557.5L577.26 561.64C577.335 562.028 577.432 562.412 577.55 562.79C576.39 562.748 575.231 562.88 574.11 563.18C571.811 562.33 569.416 561.762 566.98 561.49C566.444 561.396 565.894 561.423 565.37 561.57C564.776 561.844 564.26 562.264 563.87 562.79C561.87 565.102 560.095 567.6 558.57 570.25C552.34 581.09 544.02 590.55 536.23 600.35C530.85 602.54 525.43 604.62 520 606.68L508.33 611.13C506 612.02 503.58 612.93 501.1 612.77C499.98 612.7 498.62 612.53 497.99 613.48C497.683 613.951 497.444 614.463 497.28 615C496.87 615 496.46 615.1 496.08 615.12H496.01C495.27 613.28 494.63 611.31 493.21 609.97C492.924 610.014 492.654 610.128 492.423 610.303C492.193 610.477 492.01 610.707 491.89 610.97C491.61 611.49 491.44 612.06 491.12 612.54C490.49 613.46 489.4 613.91 488.62 614.69C487.84 615.47 487.35 616.69 486.51 617.45C485.334 618.305 483.955 618.839 482.51 619C480.345 619.51 478.257 620.303 476.3 621.36C475.578 621.804 474.806 622.16 474 622.42C473.114 622.59 472.206 622.62 471.31 622.51L465.13 622.06C464.58 621.988 464.022 622.012 463.48 622.13C462.843 622.363 462.302 622.801 461.94 623.374C461.578 623.948 461.417 624.625 461.48 625.3C461.555 625.97 461.767 626.617 462.103 627.202C462.438 627.787 462.89 628.297 463.43 628.7C464.503 629.487 465.69 630.104 466.95 630.53C472.32 632.61 477.857 634.232 483.5 635.38V636.63C487.412 638.6 491.73 639.627 496.11 639.63C496.433 639.655 496.757 639.597 497.05 639.46C497.455 639.156 497.736 638.715 497.84 638.22C499.151 634.298 499.981 630.232 500.31 626.11C501.082 626.06 501.839 625.867 502.54 625.54C504.67 624.96 506.78 626.42 508.97 626.66C511.67 626.95 514.18 625.38 516.73 624.41C517.1 624.27 517.47 624.15 517.84 624.03C517.113 624.971 516.254 625.803 515.29 626.5C514.23 627.26 513.04 627.82 512 628.61C511.136 629.4 510.209 630.119 509.23 630.76C508.54 631.082 507.828 631.356 507.1 631.58C506.045 631.965 505.038 632.472 504.1 633.09C503.26 633.585 502.548 634.27 502.02 635.09C501.754 635.473 501.591 635.917 501.546 636.381C501.5 636.845 501.574 637.312 501.761 637.739C501.947 638.166 502.24 638.539 502.611 638.82C502.982 639.102 503.419 639.285 503.88 639.35C504.715 639.498 505.568 639.522 506.41 639.42C509.75 639.17 513.08 638.86 516.41 638.56C517.82 638.466 519.22 638.265 520.6 637.96C521.33 637.78 522.05 637.54 522.78 637.35C524.025 637.021 525.303 636.83 526.59 636.78C526.964 636.751 527.34 636.788 527.7 636.89C528.48 637.14 529.03 637.89 529.82 638.09C530.333 638.14 530.85 638.068 531.33 637.88C533.768 637.351 536.255 637.086 538.75 637.09C539.84 637.03 541.12 636.82 541.63 635.81C542.25 634.56 541.21 633.16 540.8 631.81C540.591 630.952 540.477 630.073 540.46 629.19C540.27 627.011 539.644 624.893 538.62 622.96C538.076 622.058 537.617 621.107 537.25 620.12C542.029 618.302 546.601 615.983 550.89 613.2C553.35 611.67 555.89 610.02 558.67 609.46C561.91 608.81 565.25 609.67 568.44 610.59C576.039 612.788 583.513 615.395 590.83 618.4C594.33 619.83 597.83 621.35 601.41 622.4C602.457 623.812 603.723 625.048 605.16 626.06C607.56 627.61 610.49 628.06 613.31 628.28C617.12 628.628 620.945 628.772 624.77 628.71C627.69 628.66 630.7 628.46 633.31 627.13C633.948 626.803 634.548 626.407 635.1 625.95C637.1 626.31 639.15 625.24 640.72 623.87C642.798 622.102 644.296 619.75 645.02 617.12C645.94 613.51 645.23 609.3 647.45 606.35C648.04 605.56 648.81 604.92 649.39 604.12C650.104 603.049 650.455 601.776 650.39 600.49L650.49 600.34C650.992 599.18 651.329 597.954 651.49 596.7C651.753 595.72 652.087 594.761 652.49 593.83C653.617 591.04 654.599 588.192 655.43 585.3C656.008 583.381 656.462 581.427 656.79 579.45C657.03 577.87 657.17 576.28 657.3 574.69C657.46 572.201 657.945 569.744 658.74 567.38C660.714 561.739 661.83 555.833 662.05 549.86C662.05 549.74 662.05 549.63 662.05 549.51C664.953 549.192 667.633 547.802 669.566 545.612C671.499 543.422 672.545 540.59 672.5 537.67C672.503 535.91 672.135 534.169 671.42 532.56C672.8 530.139 673.517 527.397 673.5 524.61V524.61ZM616.95 593.32C617.12 593.93 617.32 594.54 617.52 595.15C616.6 594.24 615.69 593.3 614.76 592.4C615.13 592.51 615.5 592.63 615.86 592.76C616.243 592.912 616.612 593.099 616.96 593.32H616.95ZM612.47 590.32C607.01 585.58 600.69 581.9 595.1 577.32C598.1 578.83 601.1 580.58 604.1 582.26C607.593 584.26 611.127 586.173 614.7 588C614.114 588.889 613.368 589.662 612.5 590.28L612.47 590.32ZM614.8 578.38L615.06 578.11C615.06 578.78 615.06 579.41 615.06 579.98C614.57 579.82 614.06 579.66 613.59 579.48C614.022 579.128 614.429 578.747 614.81 578.34L614.8 578.38ZM566.73 591.22C568.978 588.677 570.934 585.89 572.56 582.91C574.72 586.7 578.24 589.43 581.24 592.6C576.42 591.92 571.59 591.39 566.74 591.18L566.73 591.22Z" fill="url(#paint0_linear)"/>
<path d="M574.53 545.12L577.98 545.82L589.73 563.18L584.54 563.88L574.53 545.12Z" fill="#2F2E41"/>
<path d="M490.98 615.58C491.91 618.657 493.056 621.664 494.41 624.58C498.303 623.765 502.133 622.673 505.87 621.31C505.147 620.183 504.352 619.105 503.49 618.08C502.571 617.059 501.473 616.215 500.25 615.59C499.06 615.07 497.59 615.46 496.32 615.53C494.54 615.597 492.76 615.613 490.98 615.58Z" fill="#FBBEBE"/>
<path d="M500.27 620.22C498.33 619.61 497.14 617.65 496.35 615.76C495.56 613.87 494.92 611.81 493.42 610.42C493.135 610.465 492.865 610.579 492.634 610.754C492.404 610.928 492.22 611.157 492.1 611.42C491.81 611.92 491.64 612.49 491.31 612.97C490.69 613.87 489.59 614.31 488.8 615.08C488.01 615.85 487.52 617.02 486.67 617.79C485.491 618.638 484.113 619.168 482.67 619.33C480.49 619.824 478.385 620.604 476.41 621.65C475.679 622.074 474.9 622.409 474.09 622.65C473.197 622.82 472.283 622.85 471.38 622.74L465.15 622.29C464.596 622.221 464.035 622.248 463.49 622.37C462.855 622.591 462.313 623.018 461.951 623.584C461.588 624.15 461.426 624.821 461.49 625.49C461.573 626.157 461.793 626.799 462.137 627.375C462.482 627.952 462.942 628.451 463.49 628.84C464.573 629.614 465.766 630.221 467.03 630.64C472.458 632.681 478.043 634.276 483.73 635.41V636.64C487.682 638.596 492.03 639.623 496.44 639.64C496.782 639.67 497.127 639.612 497.44 639.47C497.845 639.173 498.129 638.74 498.24 638.25C499.735 633.881 500.607 629.323 500.83 624.71C500.945 623.544 500.857 622.366 500.57 621.23C500.23 620.11 501.39 620.58 500.31 620.14" fill="#2F2E41"/>
<path d="M619.71 596.74C601.24 597.86 583 592.44 564.5 591.86C562.204 591.72 559.899 591.868 557.64 592.3C555.285 592.931 553.005 593.817 550.84 594.94C540.93 599.55 530.67 603.37 520.42 607.19L508.66 611.57C506.3 612.44 503.87 613.33 501.36 613.18C500.24 613.11 498.87 612.94 498.23 613.88C496.32 616.71 497.23 620.88 498.49 624.06C498.9 625.06 499.59 626.21 500.69 626.33C501.468 626.277 502.23 626.084 502.94 625.76C505.08 625.19 507.22 626.63 509.42 626.86C512.15 627.15 514.68 625.6 517.25 624.65C521.51 623.08 526.17 623.13 530.65 622.38C538.17 621.13 545.13 617.64 551.65 613.66C554.13 612.15 556.65 610.53 559.49 609.98C562.76 609.34 566.13 610.18 569.34 611.09C576.993 613.256 584.526 615.823 591.91 618.78C595.753 620.45 599.694 621.886 603.71 623.08C612.464 625.385 621.723 624.845 630.15 621.54C633.15 620.37 636.31 618.31 636.48 615.12C636.58 613.3 635.17 611.7 634.23 610.12C633.62 609.12 633.02 608.12 632.36 607.17C629.18 602.53 625.32 596.4 619.71 596.74Z" fill="#2F2E41"/>
<path opacity="0.1" d="M619.71 596.74C601.24 597.86 583 592.44 564.5 591.86C562.204 591.72 559.899 591.868 557.64 592.3C555.285 592.931 553.005 593.817 550.84 594.94C540.93 599.55 530.67 603.37 520.42 607.19L508.66 611.57C506.3 612.44 503.87 613.33 501.36 613.18C500.24 613.11 498.87 612.94 498.23 613.88C496.32 616.71 497.23 620.88 498.49 624.06C498.9 625.06 499.59 626.21 500.69 626.33C501.468 626.277 502.23 626.084 502.94 625.76C505.08 625.19 507.22 626.63 509.42 626.86C512.15 627.15 514.68 625.6 517.25 624.65C521.51 623.08 526.17 623.13 530.65 622.38C538.17 621.13 545.13 617.64 551.65 613.66C554.13 612.15 556.65 610.53 559.49 609.98C562.76 609.34 566.13 610.18 569.34 611.09C576.993 613.256 584.526 615.823 591.91 618.78C595.753 620.45 599.694 621.886 603.71 623.08C612.464 625.385 621.723 624.845 630.15 621.54C633.15 620.37 636.31 618.31 636.48 615.12C636.58 613.3 635.17 611.7 634.23 610.12C633.62 609.12 633.02 608.12 632.36 607.17C629.18 602.53 625.32 596.4 619.71 596.74Z" fill="black"/>
<path d="M526.43 616.48C529.323 617.46 532.237 618.367 535.17 619.2C536.82 616.49 539.9 614.61 540.6 611.52C540.64 611.386 540.64 611.244 540.6 611.11C540.523 610.978 540.408 610.874 540.27 610.81C538.162 609.647 535.823 608.964 533.42 608.81C531.52 608.69 530.66 610.67 529.8 612.06C529.5 612.62 527.2 616.74 526.43 616.48Z" fill="#FBBEBE"/>
<path d="M530.5 614.5C529.636 614.356 528.812 614.034 528.081 613.554C527.349 613.073 526.725 612.445 526.25 611.71C525.84 611 525.41 610.04 524.59 610.09C523.77 610.14 523.49 611.04 523.32 611.79C522.766 614.592 521.966 617.339 520.93 620C519.885 622.669 518.115 624.993 515.82 626.71C514.75 627.45 513.56 628.01 512.51 628.79C511.635 629.57 510.699 630.279 509.71 630.91C509.014 631.228 508.295 631.496 507.56 631.71C506.483 632.086 505.452 632.586 504.49 633.2C503.647 633.694 502.931 634.379 502.4 635.2C502.144 635.617 501.994 636.09 501.962 636.578C501.931 637.066 502.02 637.554 502.22 638C502.436 638.362 502.725 638.675 503.07 638.918C503.414 639.161 503.806 639.329 504.22 639.41C505.063 639.55 505.921 639.57 506.77 639.47C510.14 639.22 513.5 638.92 516.86 638.62C518.282 638.532 519.696 638.338 521.09 638.04C521.83 637.86 522.55 637.62 523.28 637.43C524.54 637.109 525.831 636.921 527.13 636.87C527.507 636.841 527.886 636.879 528.25 636.98C529.03 637.23 529.58 637.98 530.38 638.16C530.895 638.214 531.416 638.145 531.9 637.96C534.359 637.44 536.866 637.178 539.38 637.18C540.48 637.12 541.78 636.91 542.28 635.92C542.91 634.69 541.87 633.31 541.45 631.99C541.243 631.145 541.125 630.28 541.1 629.41C540.911 627.261 540.281 625.175 539.25 623.28C538.39 621.7 537.25 619.96 537.82 618.28C538.127 617.756 538.321 617.173 538.39 616.57C538.25 613.86 532.02 614.86 530.5 614.5Z" fill="#2F2E41"/>
<path d="M592.02 567.12C588.748 565.676 586.126 563.072 584.66 559.81C584.36 559.11 584.1 558.38 583.81 557.67C582.837 555.323 581.33 553.234 579.41 551.57C579.204 551.344 578.952 551.165 578.671 551.046C578.389 550.927 578.086 550.87 577.78 550.88C577.485 550.968 577.218 551.133 577.007 551.358C576.796 551.583 576.649 551.859 576.58 552.16C576.409 552.812 576.365 553.491 576.45 554.16C576.621 555.712 576.888 557.251 577.25 558.77L578.15 562.85C578.264 563.477 578.452 564.088 578.71 564.67C579.095 565.354 579.604 565.961 580.21 566.46C581.03 567.22 581.86 567.95 582.7 568.66C583.163 569.079 583.669 569.448 584.21 569.76C585.097 570.181 586.046 570.457 587.02 570.58C590.69 571.26 594.42 572.24 597.51 574.58C597.51 574.58 597.51 571.85 597.44 571.58C597.403 570.789 597.131 570.027 596.66 569.39C595.5 568.14 593.5 567.77 592.02 567.12Z" fill="#FBBEBE"/>
<path opacity="0.1" d="M592.02 567.12C588.748 565.676 586.126 563.072 584.66 559.81C584.36 559.11 584.1 558.38 583.81 557.67C582.837 555.323 581.33 553.234 579.41 551.57C579.204 551.344 578.952 551.165 578.671 551.046C578.389 550.927 578.086 550.87 577.78 550.88C577.485 550.968 577.218 551.133 577.007 551.358C576.796 551.583 576.649 551.859 576.58 552.16C576.409 552.812 576.365 553.491 576.45 554.16C576.621 555.712 576.888 557.251 577.25 558.77L578.15 562.85C578.264 563.477 578.452 564.088 578.71 564.67C579.095 565.354 579.604 565.961 580.21 566.46C581.03 567.22 581.86 567.95 582.7 568.66C583.163 569.079 583.669 569.448 584.21 569.76C585.097 570.181 586.046 570.457 587.02 570.58C590.69 571.26 594.42 572.24 597.51 574.58C597.51 574.58 597.51 571.85 597.44 571.58C597.403 570.789 597.131 570.027 596.66 569.39C595.5 568.14 593.5 567.77 592.02 567.12Z" fill="black"/>
<path d="M629.62 535.92C632.1 535.92 634.11 533.896 634.11 531.4C634.11 528.904 632.1 526.88 629.62 526.88C627.14 526.88 625.13 528.904 625.13 531.4C625.13 533.896 627.14 535.92 629.62 535.92Z" fill="#2F2E41"/>
<path d="M626.84 528.67C625.634 528.395 624.37 528.577 623.29 529.18C622.771 529.639 622.358 530.205 622.08 530.84C621.07 532.567 620.284 534.415 619.74 536.34C619.34 537.99 619.27 539.71 618.74 541.34C617.82 544.34 615.46 546.89 615.19 550.02C615.07 551.42 615.3 553.07 614.28 554.02C614.027 554.232 613.756 554.423 613.47 554.59C612.76 555.067 612.157 555.687 611.7 556.41C611.395 557.059 610.971 557.646 610.45 558.14C609.53 558.82 608.02 558.75 607.57 559.8C607.12 560.85 608.28 562.07 608.01 563.21C607.79 564.14 606.75 564.57 606.01 565.21C605.167 566.103 604.577 567.204 604.3 568.4C602.798 568.683 601.252 568.637 599.769 568.266C598.287 567.895 596.902 567.207 595.71 566.25C596.96 569.34 596.99 572.75 597.04 576.08C597.184 577.145 596.9 578.224 596.25 579.08C599.83 579.16 603.31 580.08 606.8 580.91C608.293 581.41 609.907 581.41 611.4 580.91C612.198 580.48 612.912 579.911 613.51 579.23C615.41 577.3 617.4 575.23 617.86 572.54C617.982 571.026 618.008 569.507 617.94 567.99C618.124 566.117 618.509 564.27 619.09 562.48C620.094 558.764 620.764 554.965 621.09 551.13C621.3 548.76 623.34 546.86 624.42 544.74C626.42 540.74 628.52 536.59 628.68 532.11C628.82 530.65 628.32 528.86 626.84 528.67Z" fill="#2F2E41"/>
<path opacity="0.1" d="M626.84 528.67C625.634 528.395 624.37 528.577 623.29 529.18C622.771 529.639 622.358 530.205 622.08 530.84C621.07 532.567 620.284 534.415 619.74 536.34C619.34 537.99 619.27 539.71 618.74 541.34C617.82 544.34 615.46 546.89 615.19 550.02C615.07 551.42 615.3 553.07 614.28 554.02C614.027 554.232 613.756 554.423 613.47 554.59C612.76 555.067 612.157 555.687 611.7 556.41C611.395 557.059 610.971 557.646 610.45 558.14C609.53 558.82 608.02 558.75 607.57 559.8C607.12 560.85 608.28 562.07 608.01 563.21C607.79 564.14 606.75 564.57 606.01 565.21C605.167 566.103 604.577 567.204 604.3 568.4C602.798 568.683 601.252 568.637 599.769 568.266C598.287 567.895 596.902 567.207 595.71 566.25C596.96 569.34 596.99 572.75 597.04 576.08C597.184 577.145 596.9 578.224 596.25 579.08C599.83 579.16 603.31 580.08 606.8 580.91C608.293 581.41 609.907 581.41 611.4 580.91C612.198 580.48 612.912 579.911 613.51 579.23C615.41 577.3 617.4 575.23 617.86 572.54C617.982 571.026 618.008 569.507 617.94 567.99C618.124 566.117 618.509 564.27 619.09 562.48C620.094 558.764 620.764 554.965 621.09 551.13C621.3 548.76 623.34 546.86 624.42 544.74C626.42 540.74 628.52 536.59 628.68 532.11C628.82 530.65 628.32 528.86 626.84 528.67Z" fill="black"/>
<path d="M622.64 600.63C618.79 598.8 615.98 595.39 612.87 592.47C606.93 586.89 599.67 582.95 593.43 577.72C589.3 574.26 585.6 570.23 581.05 567.33C577.048 564.777 572.51 563.185 567.79 562.68C567.251 562.586 566.697 562.613 566.17 562.76C565.574 563.027 565.055 563.44 564.66 563.96C562.644 566.232 560.852 568.693 559.31 571.31C551.4 584.73 540.17 596.02 530.86 608.51C530.561 608.804 530.384 609.2 530.364 609.619C530.344 610.037 530.481 610.448 530.75 610.77L532.64 614.48C533.7 616.55 535.4 618.97 537.64 618.56C538.668 618.264 539.588 617.677 540.29 616.87L548.79 608.74L557.7 600.22C562.92 595.22 568.23 590.12 571.64 583.74C574.3 588.35 579.02 591.37 582.26 595.6C583.49 597.2 584.49 598.97 585.59 600.67C587.36 603.4 589.36 605.96 591.36 608.51L601.59 621.56C602.881 623.419 604.481 625.042 606.32 626.36C608.74 627.89 611.69 628.3 614.54 628.55C618.379 628.9 622.235 629.04 626.09 628.97C629.03 628.92 632.09 628.73 634.69 627.42C637.29 626.11 639.5 623.42 639.36 620.49C639.201 618.955 638.699 617.475 637.89 616.16C634.28 609.46 629.5 603.86 622.64 600.63Z" fill="#2F2E41"/>
<path d="M632.38 538C634.285 538 635.83 536.446 635.83 534.53C635.83 532.614 634.285 531.06 632.38 531.06C630.475 531.06 628.93 532.614 628.93 534.53C628.93 536.446 630.475 538 632.38 538Z" fill="#E8E8F0"/>
<path d="M631.62 531.92C632.4 533.472 632.536 535.268 632 536.92C631.467 538.545 630.72 540.092 629.78 541.52C628.971 542.995 628.002 544.377 626.89 545.64C632.22 545.9 637.39 543.81 642.09 541.27C645.88 539.27 649.66 536.72 651.68 532.91C651.079 533.053 650.454 533.07 649.846 532.958C649.239 532.846 648.661 532.608 648.15 532.26C647.133 531.551 646.221 530.703 645.44 529.74L642.77 526.74C642.139 526.082 641.586 525.354 641.12 524.57C640.536 523.505 640.288 522.288 640.41 521.08C639.347 522.193 638.159 523.179 636.87 524.02C634.96 525.27 632.87 526.17 630.94 527.4C630.26 527.84 628.75 528.55 629.14 529.4C629.53 530.25 631.08 530.96 631.62 531.92Z" fill="#FBBEBE"/>
<path opacity="0.1" d="M631.62 531.92C632.4 533.472 632.536 535.268 632 536.92C631.467 538.545 630.72 540.092 629.78 541.52C628.971 542.995 628.002 544.377 626.89 545.64C632.22 545.9 637.39 543.81 642.09 541.27C645.88 539.27 649.66 536.72 651.68 532.91C651.079 533.053 650.454 533.07 649.846 532.958C649.239 532.846 648.661 532.608 648.15 532.26C647.133 531.551 646.221 530.703 645.44 529.74L642.77 526.74C642.139 526.082 641.586 525.354 641.12 524.57C640.536 523.505 640.288 522.288 640.41 521.08C639.347 522.193 638.159 523.179 636.87 524.02C634.96 525.27 632.87 526.17 630.94 527.4C630.26 527.84 628.75 528.55 629.14 529.4C629.53 530.25 631.08 530.96 631.62 531.92Z" fill="black"/>
<path d="M631.69 532.44C631.151 533.202 630.862 534.112 630.862 535.045C630.862 535.978 631.151 536.888 631.69 537.65C631.84 537.84 632.41 539.03 632.69 539.04C632.926 539.02 633.145 538.909 633.3 538.73C634.508 537.468 635.637 536.132 636.68 534.73C637.734 533.31 639.258 532.311 640.98 531.91C643.07 531.58 645.08 532.69 646.91 533.75C647.696 534.141 648.381 534.709 648.91 535.41C649.295 536.105 649.524 536.877 649.58 537.67C650.105 542.438 650.306 547.235 650.18 552.03C650.277 555.487 650.05 558.946 649.5 562.36C649.16 564.12 648.65 565.84 648.41 567.62C648.235 569.187 648.165 570.764 648.2 572.34V578.94C648.156 580.149 648.243 581.36 648.46 582.55C648.873 583.97 649.357 585.368 649.91 586.74C650.397 588.372 650.732 590.046 650.91 591.74L651.81 598.57C652.1 600.73 652.31 603.08 651 604.81C650.42 605.6 649.64 606.22 649 607C646.75 609.86 647.5 614.01 646.5 617.56C645.76 620.165 644.247 622.484 642.16 624.21C640.57 625.56 638.51 626.63 636.45 626.21C633.68 625.69 632.01 622.8 631.25 620.07C630.49 617.34 630.25 614.36 628.58 612.07C627.24 610.18 625.17 609 623.3 607.65C621.43 606.3 619.59 604.57 619.18 602.29C619 601.29 619.11 600.29 619.01 599.29C618.861 598.016 618.373 596.805 617.595 595.784C616.817 594.764 615.779 593.971 614.59 593.49C613.17 592.94 611.41 592.74 610.59 591.49C612.626 590.211 614.11 588.217 614.75 585.9C615.371 583.617 615.706 581.266 615.75 578.9L616.23 570.96C616.44 567.41 616.54 563.89 618.1 560.7C618.8 559.28 619.67 557.94 620.39 556.53C621.355 554.551 622.177 552.506 622.85 550.41C623.98 547.16 625.12 543.9 626.13 540.61C626.534 539.017 627.139 537.481 627.93 536.04C628.86 534.54 630.09 532.74 631.69 532.44Z" fill="#E8E8F0"/>
<path d="M614.06 584.03L616.16 584.1L616.61 580.93C616.67 580.296 616.818 579.673 617.05 579.08C617.399 578.454 617.804 577.862 618.26 577.31C620.33 574.39 620.18 570.51 620.69 566.96C621.37 562.23 623.35 557.79 625.31 553.43L629.39 544.34C629.753 543.593 630.045 542.813 630.26 542.01C630.438 541.125 630.522 540.223 630.51 539.32C630.51 537.92 630.97 532.81 631 531.4C631 530.88 629.86 531.17 629.62 530.71C629.11 529.71 628.41 532.43 627.45 533.03C626.545 533.722 625.886 534.686 625.57 535.78C624.69 538.07 624.15 540.48 623.33 542.78C622.611 545.135 621.299 547.267 619.52 548.97C618.69 549.71 617.72 550.29 616.93 551.07C614.39 553.58 614.15 557.54 614.06 561.07C614 563.26 613.59 584.03 614.06 584.03Z" fill="#2F2E41"/>
<path d="M644.31 528.65C642.31 529.45 641.15 531.65 640.58 533.79C640.01 535.93 639.77 538.19 638.67 540.09C636.11 544.55 629.58 545.85 627.77 550.67C627.309 552.298 627.064 553.979 627.04 555.67C626.72 559.12 625.58 562.46 625.24 565.91C625.063 568.594 625.127 571.288 625.43 573.96L627.72 601.19C628.164 605.2 627.931 609.257 627.03 613.19C629.378 613.528 631.774 613.134 633.89 612.06C636.04 611.06 638 609.74 640.06 608.6C643.61 606.6 647.53 605.25 650.63 602.6C651.192 602.162 651.676 601.631 652.06 601.03C652.558 599.885 652.894 598.677 653.06 597.44C653.323 596.477 653.657 595.534 654.06 594.62C655.208 591.875 656.21 589.071 657.06 586.22C657.642 584.329 658.1 582.401 658.43 580.45C658.68 578.9 658.81 577.33 658.95 575.77C659.11 573.316 659.598 570.895 660.4 568.57C662.384 563.024 663.507 557.206 663.73 551.32C663.799 550.47 663.742 549.614 663.56 548.78C663.215 547.769 662.751 546.802 662.18 545.9C661.23 544.11 660.66 542.14 659.76 540.33C657.76 536.23 654.17 533.12 650.42 530.51C648.5 529.24 646.39 527.86 644.31 528.65Z" fill="#2F2E41"/>
<path d="M596.57 573.08C594.946 572.231 593.475 571.115 592.22 569.78C591.65 569.11 591.22 568.36 590.6 567.7C589.131 566.134 587.225 565.047 585.13 564.58C583.049 564.121 580.92 563.917 578.79 563.97C577.367 563.872 575.938 564.045 574.58 564.48C573.898 564.703 573.284 565.095 572.794 565.62C572.304 566.144 571.956 566.784 571.78 567.48C571.47 569.18 572.58 570.83 573.91 571.91C575.147 572.92 576.602 573.629 578.16 573.98C579.431 574.2 580.713 574.35 582 574.43C589.56 575.22 596.31 579.33 602.93 583.08C608.75 586.367 614.683 589.443 620.73 592.31C620.97 590.5 621.07 588.675 621.03 586.85C621.03 585.49 620.93 583.41 619.64 582.61C618.14 581.67 615.64 581.46 613.98 580.9C610.083 579.628 606.277 578.092 602.59 576.3C600.5 575.29 598.5 574.22 596.57 573.08Z" fill="#FBBEBE"/>
<path d="M629.62 530.37C637.059 530.37 643.09 524.303 643.09 516.82C643.09 509.337 637.059 503.27 629.62 503.27C622.181 503.27 616.15 509.337 616.15 516.82C616.15 524.303 622.181 530.37 629.62 530.37Z" fill="#FBBEBE"/>
<path d="M648.16 544.01C647.088 545.517 646.211 547.153 645.55 548.88C643.88 552.31 641.27 555.25 639.97 558.88C638.59 562.65 638.64 567.14 635.97 570.11C635.433 570.56 635.029 571.148 634.8 571.81C634.784 572.223 634.737 572.634 634.66 573.04C634.28 574.12 632.51 574.17 632.18 575.27C632.09 575.59 632.18 575.94 632.02 576.27C631.75 576.98 630.82 577.08 630.19 577.51C628.88 578.4 629.19 580.46 628.19 581.74C627.784 582.215 627.259 582.575 626.669 582.782C626.079 582.989 625.444 583.037 624.83 582.92C623.604 582.662 622.424 582.22 621.33 581.61C620.945 581.394 620.519 581.261 620.08 581.22C619.558 581.231 619.052 581.402 618.63 581.71C616.14 583.29 614.97 586.43 614.99 589.39C615.166 592.35 615.867 595.255 617.06 597.97C617.201 598.439 617.436 598.875 617.75 599.25C618.57 600.12 620.01 599.98 621.11 599.49C622.141 598.88 623.238 598.39 624.38 598.03C626.46 597.65 628.5 599.09 630.61 598.97C632.154 598.735 633.607 598.093 634.82 597.11C636.962 595.809 638.88 594.172 640.5 592.26C641.42 591.05 642.1 589.67 642.91 588.38C643.944 586.795 645.08 585.279 646.31 583.84L654.08 574.33C654.86 573.429 655.559 572.462 656.17 571.44C656.871 570.057 657.417 568.602 657.8 567.1C658.632 564.594 659.173 562 659.41 559.37C659.45 557.193 659.259 555.017 658.84 552.88C658.579 550.754 658.017 548.677 657.17 546.71C655.44 543.21 651.33 540.31 648.16 544.01Z" fill="#2F2E41"/>
<path d="M675.22 526.36C675.231 523.958 674.67 521.587 673.585 519.443C672.501 517.3 670.922 515.444 668.98 514.03C668.921 509.765 667.35 505.659 664.546 502.445C661.742 499.231 657.887 497.117 653.67 496.48C652.855 492.44 650.64 488.817 647.415 486.251C644.191 483.684 640.164 482.337 636.044 482.448C631.924 482.56 627.975 484.121 624.894 486.858C621.813 489.595 619.796 493.332 619.2 497.41C613.6 496.15 608.48 497.79 607.55 501.24C606.55 504.85 610.55 509.07 616.47 510.67C618.325 511.194 620.258 511.387 622.18 511.24C623.557 513.261 625.341 514.973 627.417 516.264C629.494 517.556 631.818 518.399 634.24 518.74C634.951 522.002 636.559 525 638.882 527.398C641.206 529.795 644.152 531.497 647.39 532.31C648.286 534.475 649.676 536.399 651.45 537.93C651.45 538.35 651.38 538.78 651.38 539.22C651.316 540.757 651.563 542.292 652.107 543.731C652.65 545.17 653.48 546.485 654.545 547.595C655.61 548.706 656.888 549.589 658.303 550.193C659.719 550.796 661.241 551.108 662.78 551.108C664.319 551.108 665.841 550.796 667.257 550.193C668.672 549.589 669.95 548.706 671.015 547.595C672.08 546.485 672.909 545.17 673.453 543.731C673.997 542.292 674.244 540.757 674.18 539.22C674.18 537.494 673.809 535.789 673.09 534.22C674.496 531.84 675.232 529.124 675.22 526.36V526.36Z" fill="#F86D70"/>
<path opacity="0.1" d="M611.35 501.93C612.28 498.48 617.35 496.84 623 498.1C623.657 493.958 625.757 490.182 628.927 487.437C632.098 484.693 636.137 483.157 640.33 483.1C640.72 483.1 641.11 483.1 641.49 483.1C639.869 482.606 638.184 482.356 636.49 482.36C632.297 482.417 628.258 483.953 625.087 486.697C621.917 489.442 619.817 493.218 619.16 497.36C613.56 496.1 608.44 497.74 607.51 501.19C606.51 504.8 610.51 509.02 616.43 510.62C617.531 510.925 618.66 511.12 619.8 511.2C614.18 509.56 610.4 505.46 611.35 501.93Z" fill="black"/>
<path opacity="0.1" d="M655.18 539.92C655.18 539.48 655.18 539.05 655.25 538.62C653.476 537.094 652.085 535.172 651.19 533.01C647.954 532.188 645.011 530.483 642.689 528.085C640.367 525.687 638.757 522.69 638.04 519.43C635.618 519.091 633.293 518.249 631.216 516.957C629.139 515.665 627.355 513.953 625.98 511.93C624.86 512.019 623.734 511.988 622.62 511.84C624.002 513.703 625.742 515.273 627.737 516.458C629.732 517.642 631.942 518.418 634.24 518.74C634.951 522.002 636.559 525 638.882 527.398C641.206 529.795 644.152 531.497 647.39 532.31C648.286 534.475 649.676 536.399 651.45 537.93C651.45 538.35 651.38 538.78 651.38 539.22C651.329 542.286 652.493 545.247 654.617 547.458C656.742 549.669 659.655 550.949 662.72 551.02C660.483 550.157 658.562 548.632 657.215 546.648C655.868 544.665 655.158 542.318 655.18 539.92Z" fill="black"/>
<path d="M635.783 521.785C636.697 521.09 636.689 519.539 635.763 518.321C634.838 517.102 633.346 516.678 632.432 517.373C631.517 518.068 631.525 519.619 632.451 520.837C633.376 522.055 634.868 522.479 635.783 521.785Z" fill="#FBBEBE"/>
<path d="M313.8 589.21L327.12 581.38C325.32 578.303 323.018 575.548 320.31 573.23L295.19 581.04L314.87 569.47C309.997 566.801 304.513 565.447 298.957 565.542C293.402 565.636 287.967 567.175 283.187 570.008C278.407 572.84 274.447 576.868 271.696 581.696C268.946 586.523 267.499 591.984 267.5 597.54C267.5 615.21 281.83 615.82 299.5 615.82C317.17 615.82 331.5 615.21 331.5 597.54C331.511 593.061 330.573 588.631 328.75 584.54L313.8 589.21Z" fill="#6C63FF"/>
<path opacity="0.1" d="M317.19 606.39C315.771 604.968 314.187 603.723 312.47 602.68C310.06 601.07 307.55 599.43 304.7 598.89C302.2 598.41 299.62 598.82 297.07 598.67C292.642 598.4 288.474 596.489 285.38 593.31C283.56 591.43 282.13 589.12 279.94 587.68C277.492 586.226 274.604 585.697 271.8 586.19C270.987 586.303 270.182 586.467 269.39 586.68C268.137 590.163 267.497 593.838 267.5 597.54C267.5 615.21 281.83 615.82 299.5 615.82C308.08 615.82 315.86 615.68 321.61 613.51L320.61 611.72C319.702 609.805 318.552 608.014 317.19 606.39Z" fill="black"/>
</g>
<defs>
<linearGradient id="paint0_linear" x1="567.5" y1="639.64" x2="567.5" y2="480" gradientUnits="userSpaceOnUse">
<stop stop-color="#808080" stop-opacity="0.25"/>
<stop offset="0.54" stop-color="#808080" stop-opacity="0.12"/>
<stop offset="1" stop-color="#808080" stop-opacity="0.1"/>
</linearGradient>
<clipPath id="clip0">
<rect width="1143" height="663.73" fill="white"/>
</clipPath>
</defs>
</svg>
